<svg width="333" height="82" viewBox="0 0 333 82" fill="none" xmlns="http://www.w3.org/2000/svg">
<g filter="url(#filter0_d_1_21161)">
<path d="M296.612 69.889H40.6368C25.1114 69.889 12.497 56.0671 12.497 39.0556C12.497 22.044 25.1114 8.22217 40.6368 8.22217H296.612C312.138 8.22217 324.752 22.044 324.752 39.0556C324.752 56.0671 312.138 69.889 296.612 69.889Z" fill="url(#paint0_radial_1_21161)"/>
<path d="M290.927 74.0002H42.073C21.1053 74.0002 4 57.417 4 36.9109C4 16.5832 21.1053 0 42.073 0H290.927C311.895 0 329 16.5832 329 36.9109C329 57.417 311.895 74.0002 290.927 74.0002ZM42.073 8.02411C25.5195 8.02411 12.2767 21.041 12.2767 36.9109C12.2767 52.9592 25.7035 65.7977 42.073 65.7977H290.927C307.48 65.7977 320.723 52.7808 320.723 36.9109C320.723 20.8627 307.297 8.02411 290.927 8.02411H42.073Z" fill="url(#paint1_radial_1_21161)"/>
<path opacity="0.09" fill-rule="evenodd" clip-rule="evenodd" d="M220.667 69.8869L273.5 8.22217H74.4869C66.9421 17.2635 59.3613 26.3485 51.7803 35.4337L51.7439 35.4773L51.6627 35.5746C43.4675 45.3959 35.2724 55.2171 27.1224 64.9835C19.6941 59.4946 14.621 49.395 14.621 37.9781C14.621 35.3439 14.8859 32.7837 15.3851 30.3347C14.6788 33.1021 14.2997 36.0307 14.2997 39.0605C14.2997 56.0747 26.255 69.8988 40.9692 69.8988H283.57C283.819 69.8988 284.068 69.8948 284.316 69.8869H220.667ZM126.128 8.43457H132.749L79.4104 69.8985H72.789L126.128 8.43457Z" fill="white"/>
<g opacity="0.6">
<path d="M290.927 3.92261H42.073C25.5195 3.92261 12.2767 16.9395 12.2767 32.9877C12.2767 33.701 12.2767 34.4142 12.2767 34.9492C13.3803 19.9708 26.2552 8.02382 42.073 8.02382H290.927C306.745 8.02382 319.62 19.9708 320.723 34.9492C320.723 34.2359 320.723 33.701 320.723 32.9877C320.723 16.9395 307.48 3.92261 290.927 3.92261Z" fill="#FF9800"/>
<path d="M290.927 71.5032H42.073C21.841 71.5032 5.10357 54.385 4 34.9489C4 35.6621 4 36.197 4 36.9103C4 57.2381 21.1053 73.8212 42.073 73.8212H290.927C311.895 73.8212 329 57.2381 329 36.9103C329 36.197 329 35.4838 329 34.9489C327.896 54.385 311.343 71.5032 290.927 71.5032Z" fill="#FF9800"/>
</g>
<path d="M42.073 2.31808H290.927C311.527 2.31808 328.448 18.188 329 38.1591C329 37.8025 329 37.4459 329 36.9109C329 16.5832 311.895 0 290.927 0H42.073C21.1053 0 4 16.5832 4 36.9109C4 37.2676 4 37.8025 4 38.1591C4.73571 18.3663 21.4731 2.31808 42.073 2.31808Z" fill="url(#paint2_radial_1_21161)"/>
<path d="M42.073 68.2942H290.927C307.48 68.2942 320.723 55.2773 320.723 39.4074C320.723 39.0507 320.723 38.5158 320.723 38.1592C320.171 53.6725 306.929 65.9761 290.927 65.9761H42.073C26.0713 65.9761 13.0124 53.6725 12.2767 38.1592C12.2767 38.5158 12.2767 38.8724 12.2767 39.4074C12.2767 55.4556 25.7034 68.2942 42.073 68.2942Z" fill="url(#paint3_radial_1_21161)"/>
</g>
<defs>
<filter id="filter0_d_1_21161" x="0" y="0" width="333" height="82.0001" filterUnits="userSpaceOnUse" color-interpolation-filters="sRGB">
<feFlood flood-opacity="0" result="BackgroundImageFix"/>
<feColorMatrix in="SourceAlpha" type="matrix" values="0 0 0 0 0 0 0 0 0 0 0 0 0 0 0 0 0 0 127 0" result="hardAlpha"/>
<feOffset dy="4"/>
<feGaussianBlur stdDeviation="2"/>
<feComposite in2="hardAlpha" operator="out"/>
<feColorMatrix type="matrix" values="0 0 0 0 0 0 0 0 0 0 0 0 0 0 0 0 0 0 0.25 0"/>
<feBlend mode="normal" in2="BackgroundImageFix" result="effect1_dropShadow_1_21161"/>
<feBlend mode="normal" in="SourceGraphic" in2="effect1_dropShadow_1_21161" result="shape"/>
</filter>
<radialGradient id="paint0_radial_1_21161" cx="0" cy="0" r="1" gradientUnits="userSpaceOnUse" gradientTransform="translate(162.327 41.5603) scale(342.454 345.806)">
<stop stop-color="#54004D"/>
<stop offset="0.2389" stop-color="#50004A"/>
<stop offset="0.4501" stop-color="#460040"/>
<stop offset="0.6509" stop-color="#34002F"/>
<stop offset="0.844" stop-color="#1A0018"/>
<stop offset="1"/>
</radialGradient>
<radialGradient id="paint1_radial_1_21161" cx="0" cy="0" r="1" gradientUnits="userSpaceOnUse" gradientTransform="translate(166.54 36.9896) scale(121.227 82.244)">
<stop stop-color="#FF9800"/>
<stop offset="0.5391" stop-color="#FFFF00"/>
<stop offset="0.6395" stop-color="#FFFB00"/>
<stop offset="0.7284" stop-color="#FFF100"/>
<stop offset="0.8128" stop-color="#FFDF00"/>
<stop offset="0.8945" stop-color="#FFC500"/>
<stop offset="0.9735" stop-color="#FFA500"/>
<stop offset="1" stop-color="#FF9800"/>
</radialGradient>
<radialGradient id="paint2_radial_1_21161" cx="0" cy="0" r="1" gradientUnits="userSpaceOnUse" gradientTransform="translate(166.54 19.0974) scale(115.774 112.24)">
<stop stop-color="#FF9800"/>
<stop offset="0.5391" stop-color="#FFFF00"/>
<stop offset="0.6395" stop-color="#FFFB00"/>
<stop offset="0.7284" stop-color="#FFF100"/>
<stop offset="0.8128" stop-color="#FFDF00"/>
<stop offset="0.8945" stop-color="#FFC500"/>
<stop offset="0.9735" stop-color="#FFA500"/>
<stop offset="1" stop-color="#FF9800"/>
</radialGradient>
<radialGradient id="paint3_radial_1_21161" cx="0" cy="0" r="1" gradientUnits="userSpaceOnUse" gradientTransform="translate(166.539 53.2816) scale(109.64 106.293)">
<stop stop-color="#FF9800"/>
<stop offset="0.5391" stop-color="#FFFF00"/>
<stop offset="0.6395" stop-color="#FFFB00"/>
<stop offset="0.7284" stop-color="#FFF100"/>
<stop offset="0.8128" stop-color="#FFDF00"/>
<stop offset="0.8945" stop-color="#FFC500"/>
<stop offset="0.9735" stop-color="#FFA500"/>
<stop offset="1" stop-color="#FF9800"/>
</radialGradient>
</defs>
</svg>
