<svg width="196" height="55" viewBox="0 0 196 55" fill="none" xmlns="http://www.w3.org/2000/svg">
<g filter="url(#filter0_d_1_7523)">
<rect x="33.5" width="158" height="47" rx="10.8054" fill="#881AB9"/>
<path d="M48.5381 20H46.7812V11.626H43.8281V10.1357H51.4844V11.626H48.5381V20ZM51.3613 20V12.7539H52.9951V14.0186H53.0293C53.2754 13.1367 53.9111 12.6309 54.7656 12.6309C54.9844 12.6309 55.1758 12.6719 55.2988 12.6992V14.2373C55.1553 14.1826 54.8955 14.1416 54.6084 14.1416C53.6445 14.1416 53.0635 14.7637 53.0635 15.7822V20H51.3613ZM56.9805 22.6934C56.8848 22.6934 56.3994 22.6865 56.3105 22.666V21.3193C56.3994 21.3398 56.7002 21.3467 56.8027 21.3467C57.5068 21.3467 57.8691 21.0801 58.0605 20.4102C58.0605 20.3896 58.1631 20.0273 58.1562 20.0068L55.5791 12.7539H57.4385L59.1475 18.5508H59.1748L60.8838 12.7539H62.6748L60.0566 20.2871C59.4346 22.085 58.6348 22.6934 56.9805 22.6934ZM67.0977 22.6934C67.002 22.6934 66.5166 22.6865 66.4277 22.666V21.3193C66.5166 21.3398 66.8174 21.3467 66.9199 21.3467C67.624 21.3467 67.9863 21.0801 68.1777 20.4102C68.1777 20.3896 68.2803 20.0273 68.2734 20.0068L65.6963 12.7539H67.5557L69.2646 18.5508H69.292L71.001 12.7539H72.792L70.1738 20.2871C69.5518 22.085 68.752 22.6934 67.0977 22.6934ZM76.6064 20.1436C74.4805 20.1436 73.0996 18.7285 73.0996 16.377C73.0996 14.0391 74.4941 12.6035 76.6064 12.6035C78.7188 12.6035 80.1133 14.0322 80.1133 16.377C80.1133 18.7285 78.7324 20.1436 76.6064 20.1436ZM76.6064 18.7969C77.6865 18.7969 78.3838 17.9219 78.3838 16.377C78.3838 14.8389 77.6865 13.957 76.6064 13.957C75.5332 13.957 74.8291 14.8389 74.8291 16.377C74.8291 17.9219 75.5264 18.7969 76.6064 18.7969ZM87.6328 12.7539V20H85.9922V18.7422H85.958C85.5752 19.624 84.8438 20.1299 83.7432 20.1299C82.1709 20.1299 81.1729 19.1113 81.1729 17.4365V12.7539H82.875V17.0947C82.875 18.1338 83.3809 18.6943 84.3379 18.6943C85.3223 18.6943 85.9307 17.9971 85.9307 16.9443V12.7539H87.6328ZM89.0273 20V12.7539H90.6611V14.0186H90.6953C90.9414 13.1367 91.5771 12.6309 92.4316 12.6309C92.6504 12.6309 92.8418 12.6719 92.9648 12.6992V14.2373C92.8213 14.1826 92.5615 14.1416 92.2744 14.1416C91.3105 14.1416 90.7295 14.7637 90.7295 15.7822V20H89.0273ZM96.6904 20V10.1357H98.3926V20H96.6904ZM106.268 12.7539V20H104.627V18.7422H104.593C104.21 19.624 103.479 20.1299 102.378 20.1299C100.806 20.1299 99.8076 19.1113 99.8076 17.4365V12.7539H101.51V17.0947C101.51 18.1338 102.016 18.6943 102.973 18.6943C103.957 18.6943 104.565 17.9971 104.565 16.9443V12.7539H106.268ZM114.047 15.3379H112.44C112.304 14.5654 111.764 13.9844 110.854 13.9844C109.781 13.9844 109.091 14.8867 109.091 16.377C109.091 17.8945 109.788 18.7695 110.868 18.7695C111.729 18.7695 112.29 18.2773 112.447 17.457H114.054C113.917 19.0771 112.666 20.1436 110.848 20.1436C108.729 20.1436 107.361 18.7285 107.361 16.377C107.361 14.0596 108.729 12.6035 110.834 12.6035C112.748 12.6035 113.931 13.8135 114.047 15.3379ZM116.843 15.7754L119.57 12.7539H121.532L118.634 15.8711L121.655 20H119.687L117.396 16.9033L116.822 17.4844V20H115.12V10.1357H116.822V15.7754H116.843ZM127.78 18.8311C128.744 18.8311 129.517 18.1885 129.517 17.3135V16.7598L127.842 16.8623C127.021 16.917 126.55 17.2861 126.55 17.8604C126.55 18.4551 127.042 18.8311 127.78 18.8311ZM127.268 20.1162C125.866 20.1162 124.848 19.2344 124.848 17.9287C124.848 16.6436 125.839 15.8711 127.603 15.7617L129.517 15.6523V15.1328C129.517 14.374 129.004 13.9365 128.163 13.9365C127.356 13.9365 126.844 14.3262 126.734 14.9277H125.155C125.23 13.5742 126.386 12.6035 128.231 12.6035C130.029 12.6035 131.198 13.5537 131.198 15.0098V20H129.558V18.8447H129.523C129.106 19.6309 128.197 20.1162 127.268 20.1162ZM132.572 20V12.7539H134.206V13.998H134.24C134.63 13.1367 135.402 12.6172 136.517 12.6172C138.116 12.6172 139.025 13.6426 139.025 15.3174V20H137.323V15.6592C137.323 14.6338 136.845 14.0596 135.874 14.0596C134.896 14.0596 134.274 14.7637 134.274 15.8027V20H132.572ZM143.1 20.1162C141.274 20.1162 140.092 18.6738 140.092 16.3701C140.092 14.0801 141.274 12.6309 143.1 12.6309C144.139 12.6309 144.959 13.1709 145.342 13.9707H145.383V10.1357H147.085V20H145.417V18.7627H145.39C144.993 19.5762 144.159 20.1162 143.1 20.1162ZM143.612 14.0322C142.519 14.0322 141.835 14.9414 141.835 16.377C141.835 17.8193 142.512 18.7217 143.612 18.7217C144.686 18.7217 145.39 17.8125 145.39 16.377C145.39 14.9551 144.686 14.0322 143.612 14.0322ZM161.146 12.7539L159.185 20H157.394L155.965 14.7021H155.931L154.509 20H152.731L150.77 12.7539H152.479L153.702 18.3184H153.736L155.151 12.7539H156.785L158.2 18.3184H158.241L159.465 12.7539H161.146ZM162.035 20V12.7539H163.737V20H162.035ZM162.883 11.8037C162.356 11.8037 161.939 11.3936 161.939 10.8809C161.939 10.3613 162.356 9.95117 162.883 9.95117C163.416 9.95117 163.833 10.3613 163.833 10.8809C163.833 11.3936 163.416 11.8037 162.883 11.8037ZM165.166 20V12.7539H166.8V13.998H166.834C167.224 13.1367 167.996 12.6172 169.11 12.6172C170.71 12.6172 171.619 13.6426 171.619 15.3174V20H169.917V15.6592C169.917 14.6338 169.438 14.0596 168.468 14.0596C167.49 14.0596 166.868 14.7637 166.868 15.8027V20H165.166ZM46.8428 35.8311C47.8066 35.8311 48.5791 35.1885 48.5791 34.3135V33.7598L46.9043 33.8623C46.084 33.917 45.6123 34.2861 45.6123 34.8604C45.6123 35.4551 46.1045 35.8311 46.8428 35.8311ZM46.3301 37.1162C44.9287 37.1162 43.9102 36.2344 43.9102 34.9287C43.9102 33.6436 44.9014 32.8711 46.665 32.7617L48.5791 32.6523V32.1328C48.5791 31.374 48.0664 30.9365 47.2256 30.9365C46.4189 30.9365 45.9062 31.3262 45.7969 31.9277H44.2178C44.293 30.5742 45.4482 29.6035 47.2939 29.6035C49.0918 29.6035 50.2607 30.5537 50.2607 32.0098V37H48.6201V35.8447H48.5859C48.1689 36.6309 47.2598 37.1162 46.3301 37.1162ZM54.3418 37.1162C52.5166 37.1162 51.334 35.6738 51.334 33.3701C51.334 31.0801 52.5166 29.6309 54.3418 29.6309C55.3809 29.6309 56.2012 30.1709 56.584 30.9707H56.625V27.1357H58.3271V37H56.6592V35.7627H56.6318C56.2354 36.5762 55.4014 37.1162 54.3418 37.1162ZM54.8545 31.0322C53.7607 31.0322 53.0771 31.9414 53.0771 33.377C53.0771 34.8193 53.7539 35.7217 54.8545 35.7217C55.9277 35.7217 56.6318 34.8125 56.6318 33.377C56.6318 31.9551 55.9277 31.0322 54.8545 31.0322ZM62.4629 37.1162C60.6377 37.1162 59.4551 35.6738 59.4551 33.3701C59.4551 31.0801 60.6377 29.6309 62.4629 29.6309C63.502 29.6309 64.3223 30.1709 64.7051 30.9707H64.7461V27.1357H66.4482V37H64.7803V35.7627H64.7529C64.3564 36.5762 63.5225 37.1162 62.4629 37.1162ZM62.9756 31.0322C61.8818 31.0322 61.1982 31.9414 61.1982 33.377C61.1982 34.8193 61.875 35.7217 62.9756 35.7217C64.0488 35.7217 64.7529 34.8125 64.7529 33.377C64.7529 31.9551 64.0488 31.0322 62.9756 31.0322ZM67.918 37V29.7539H69.6201V37H67.918ZM68.7656 28.8037C68.2393 28.8037 67.8223 28.3936 67.8223 27.8809C67.8223 27.3613 68.2393 26.9512 68.7656 26.9512C69.2988 26.9512 69.7158 27.3613 69.7158 27.8809C69.7158 28.3936 69.2988 28.8037 68.7656 28.8037ZM71.5205 28.0586H73.2227V29.7539H74.5898V31.0664H73.2227V34.833C73.2227 35.4277 73.4961 35.7012 74.0977 35.7012C74.2549 35.7012 74.4736 35.6875 74.583 35.667V36.9658C74.3984 37.0068 74.0635 37.0342 73.7012 37.0342C72.1357 37.0342 71.5205 36.4805 71.5205 35.0723V31.0664H70.4814V29.7539H71.5205V28.0586ZM75.793 37V29.7539H77.4951V37H75.793ZM76.6406 28.8037C76.1143 28.8037 75.6973 28.3936 75.6973 27.8809C75.6973 27.3613 76.1143 26.9512 76.6406 26.9512C77.1738 26.9512 77.5908 27.3613 77.5908 27.8809C77.5908 28.3936 77.1738 28.8037 76.6406 28.8037ZM82.1299 37.1436C80.0039 37.1436 78.623 35.7285 78.623 33.377C78.623 31.0391 80.0176 29.6035 82.1299 29.6035C84.2422 29.6035 85.6367 31.0322 85.6367 33.377C85.6367 35.7285 84.2559 37.1436 82.1299 37.1436ZM82.1299 35.7969C83.21 35.7969 83.9072 34.9219 83.9072 33.377C83.9072 31.8389 83.21 30.957 82.1299 30.957C81.0566 30.957 80.3525 31.8389 80.3525 33.377C80.3525 34.9219 81.0498 35.7969 82.1299 35.7969ZM86.7305 37V29.7539H88.3643V30.998H88.3984C88.7881 30.1367 89.5605 29.6172 90.6748 29.6172C92.2744 29.6172 93.1836 30.6426 93.1836 32.3174V37H91.4814V32.6592C91.4814 31.6338 91.0029 31.0596 90.0322 31.0596C89.0547 31.0596 88.4326 31.7637 88.4326 32.8027V37H86.7305ZM97.1963 35.8311C98.1602 35.8311 98.9326 35.1885 98.9326 34.3135V33.7598L97.2578 33.8623C96.4375 33.917 95.9658 34.2861 95.9658 34.8604C95.9658 35.4551 96.458 35.8311 97.1963 35.8311ZM96.6836 37.1162C95.2822 37.1162 94.2637 36.2344 94.2637 34.9287C94.2637 33.6436 95.2549 32.8711 97.0186 32.7617L98.9326 32.6523V32.1328C98.9326 31.374 98.4199 30.9365 97.5791 30.9365C96.7725 30.9365 96.2598 31.3262 96.1504 31.9277H94.5713C94.6465 30.5742 95.8018 29.6035 97.6475 29.6035C99.4453 29.6035 100.614 30.5537 100.614 32.0098V37H98.9736V35.8447H98.9395C98.5225 36.6309 97.6133 37.1162 96.6836 37.1162ZM102.036 37V27.1357H103.738V37H102.036ZM112.044 37.1162C110.978 37.1162 110.164 36.6035 109.74 35.7627H109.706V37H108.038V27.1357H109.74V30.998H109.781C110.191 30.1504 111.019 29.6309 112.044 29.6309C113.869 29.6309 115.031 31.0596 115.031 33.377C115.031 35.6943 113.876 37.1162 112.044 37.1162ZM111.518 31.0322C110.465 31.0322 109.733 31.9688 109.733 33.377C109.733 34.7988 110.465 35.7217 111.518 35.7217C112.611 35.7217 113.288 34.8193 113.288 33.377C113.288 31.9414 112.604 31.0322 111.518 31.0322ZM119.345 37.1436C117.219 37.1436 115.838 35.7285 115.838 33.377C115.838 31.0391 117.232 29.6035 119.345 29.6035C121.457 29.6035 122.852 31.0322 122.852 33.377C122.852 35.7285 121.471 37.1436 119.345 37.1436ZM119.345 35.7969C120.425 35.7969 121.122 34.9219 121.122 33.377C121.122 31.8389 120.425 30.957 119.345 30.957C118.271 30.957 117.567 31.8389 117.567 33.377C117.567 34.9219 118.265 35.7969 119.345 35.7969ZM123.945 37V29.7539H125.579V30.998H125.613C126.003 30.1367 126.775 29.6172 127.89 29.6172C129.489 29.6172 130.398 30.6426 130.398 32.3174V37H128.696V32.6592C128.696 31.6338 128.218 31.0596 127.247 31.0596C126.27 31.0596 125.647 31.7637 125.647 32.8027V37H123.945ZM138.191 29.7539V37H136.551V35.7422H136.517C136.134 36.624 135.402 37.1299 134.302 37.1299C132.729 37.1299 131.731 36.1113 131.731 34.4365V29.7539H133.434V34.0947C133.434 35.1338 133.939 35.6943 134.896 35.6943C135.881 35.6943 136.489 34.9971 136.489 33.9443V29.7539H138.191ZM139.456 31.832C139.456 30.5059 140.625 29.6035 142.389 29.6035C144.091 29.6035 145.246 30.5195 145.287 31.8594H143.701C143.646 31.2373 143.147 30.8545 142.354 30.8545C141.603 30.8545 141.11 31.21 141.11 31.7363C141.11 32.1465 141.438 32.4199 142.149 32.5908L143.441 32.8779C144.891 33.2197 145.458 33.7803 145.458 34.8535C145.458 36.2207 144.193 37.1436 142.361 37.1436C140.543 37.1436 139.388 36.2412 139.271 34.8672H140.946C141.049 35.5303 141.562 35.8994 142.423 35.8994C143.25 35.8994 143.763 35.5645 143.763 35.0244C143.763 34.6006 143.496 34.375 142.792 34.1973L141.473 33.8896C140.133 33.5752 139.456 32.8779 139.456 31.832ZM149.669 30.9229C148.712 30.9229 148.021 31.6543 147.953 32.666H151.337C151.303 31.6406 150.646 30.9229 149.669 30.9229ZM151.344 34.833H152.937C152.718 36.2002 151.446 37.1436 149.73 37.1436C147.557 37.1436 146.244 35.7148 146.244 33.4043C146.244 31.1143 147.57 29.6035 149.662 29.6035C151.72 29.6035 153.005 31.0322 153.005 33.2334V33.7871H147.939V33.8896C147.939 35.0518 148.65 35.8311 149.765 35.8311C150.558 35.8311 151.159 35.4346 151.344 34.833ZM153.976 31.832C153.976 30.5059 155.145 29.6035 156.908 29.6035C158.61 29.6035 159.766 30.5195 159.807 31.8594H158.221C158.166 31.2373 157.667 30.8545 156.874 30.8545C156.122 30.8545 155.63 31.21 155.63 31.7363C155.63 32.1465 155.958 32.4199 156.669 32.5908L157.961 32.8779C159.41 33.2197 159.978 33.7803 159.978 34.8535C159.978 36.2207 158.713 37.1436 156.881 37.1436C155.062 37.1436 153.907 36.2412 153.791 34.8672H155.466C155.568 35.5303 156.081 35.8994 156.942 35.8994C157.77 35.8994 158.282 35.5645 158.282 35.0244C158.282 34.6006 158.016 34.375 157.312 34.1973L155.992 33.8896C154.652 33.5752 153.976 32.8779 153.976 31.832Z" fill="white"/>
<path d="M4 34C22.8 40.4 33.1667 32 36 27V42C21.2 48.4 8.5 39.3333 4 34Z" fill="#881AB9"/>
</g>
<defs>
<filter id="filter0_d_1_7523" x="0" y="0" width="195.5" height="55" filterUnits="userSpaceOnUse" color-interpolation-filters="sRGB">
<feFlood flood-opacity="0" result="BackgroundImageFix"/>
<feColorMatrix in="SourceAlpha" type="matrix" values="0 0 0 0 0 0 0 0 0 0 0 0 0 0 0 0 0 0 127 0" result="hardAlpha"/>
<feOffset dy="4"/>
<feGaussianBlur stdDeviation="2"/>
<feComposite in2="hardAlpha" operator="out"/>
<feColorMatrix type="matrix" values="0 0 0 0 0 0 0 0 0 0 0 0 0 0 0 0 0 0 0.25 0"/>
<feBlend mode="normal" in2="BackgroundImageFix" result="effect1_dropShadow_1_7523"/>
<feBlend mode="normal" in="SourceGraphic" in2="effect1_dropShadow_1_7523" result="shape"/>
</filter>
</defs>
</svg>
