<svg width="9" height="9" viewBox="0 0 9 9" fill="none" xmlns="http://www.w3.org/2000/svg">
<path d="M1.51658 9C0.494434 9 -0.0791393 7.82299 0.550697 7.01796L2.51271 4.51019C2.52262 4.49753 2.528 4.48191 2.528 4.46582C2.528 4.44959 2.52251 4.43382 2.51242 4.4211L0.706281 2.14251C0.0196348 1.27625 0.636566 0 1.74195 0C2.17429 0 2.57929 0.211467 2.8264 0.566229L4.53596 3.02063C4.54601 3.03506 4.56248 3.04366 4.58006 3.04366C4.59757 3.04366 4.61399 3.03513 4.62405 3.02079L6.37522 0.525486C6.60639 0.19609 6.98356 0 7.38598 0C8.42912 0 9.00229 1.21336 8.33977 2.01909L6.34194 4.44874C6.33293 4.4597 6.328 4.47346 6.328 4.48765C6.328 4.50169 6.33283 4.51531 6.34167 4.52622L8.28754 6.92683C8.96162 7.75843 8.36978 9 7.2993 9C6.90383 9 6.53086 8.81608 6.2901 8.50235L4.4515 6.1065C4.43921 6.09047 4.42016 6.08108 4.39997 6.08108C4.37981 6.08108 4.36079 6.09044 4.3485 6.10641L2.48819 8.52192C2.25602 8.82338 1.89708 9 1.51658 9Z" fill="white"/>
</svg>
