<svg width="168" height="56" viewBox="0 0 168 56" fill="none" xmlns="http://www.w3.org/2000/svg">
<path d="M20.3636 56C9.1123 56 0 43.4118 0 28C0 12.5882 9.1123 0 20.3636 0H147.636C158.845 0 168 12.5294 168 28C168 43.4118 158.888 56 147.636 56H20.3636Z" fill="url(#paint0_linear_1_1547)"/>
<path d="M20.3634 53.4119C10.1388 53.4119 1.83936 42.0001 1.83936 27.9413C1.83936 13.8825 10.1388 2.47073 20.3634 2.47073H147.636C157.861 2.47073 166.16 13.8825 166.16 27.9413C166.16 42.0001 157.861 53.4119 147.636 53.4119H20.3634Z" fill="url(#paint1_linear_1_1547)"/>
<path d="M147.893 50.8826H20.107C11.0375 50.8826 3.6792 40.7649 3.6792 28.2943V27.6473C3.6792 15.1767 11.0375 5.05905 20.107 5.05905H147.893C156.963 5.05905 164.321 15.1767 164.321 27.6473V28.2943C164.278 40.7649 156.963 50.8826 147.893 50.8826Z" fill="#0186B3"/>
<g style="mix-blend-mode:screen">
<path d="M147.893 50.8826H20.107C11.0375 50.8826 3.6792 40.7649 3.6792 28.2943V27.6473C3.6792 15.1767 11.0375 5.05905 20.107 5.05905H147.893C156.963 5.05905 164.321 15.1767 164.321 27.6473V28.2943C164.278 40.7649 156.963 50.8826 147.893 50.8826Z" fill="url(#paint2_radial_1_1547)"/>
</g>
<g style="mix-blend-mode:screen">
<path d="M147.893 50.8826H20.107C11.0375 50.8826 3.6792 40.7649 3.6792 28.2943V27.6473C3.6792 15.1767 11.0375 5.05905 20.107 5.05905H147.893C156.963 5.05905 164.321 15.1767 164.321 27.6473V28.2943C164.278 40.7649 156.963 50.8826 147.893 50.8826Z" fill="url(#paint3_linear_1_1547)"/>
</g>
<path d="M58.4887 39H55.2954V17.8623H58.269L69.2261 33.4482H69.3432V17.8623H72.5366V39H69.5776L58.6206 23.4287H58.4887V39ZM82.5122 25.8604C80.3003 25.8604 78.7475 27.5449 78.5864 29.874H86.2915C86.2182 27.5156 84.7241 25.8604 82.5122 25.8604ZM86.2768 34.4736H89.2798C88.8403 37.2861 86.1743 39.293 82.644 39.293C78.1177 39.293 75.3784 36.2314 75.3784 31.3682C75.3784 26.5342 78.1616 23.3115 82.5122 23.3115C86.7895 23.3115 89.4555 26.3291 89.4555 31.002V32.0859H78.5718V32.2764C78.5718 34.957 80.1831 36.7295 82.7173 36.7295C84.519 36.7295 85.852 35.8213 86.2768 34.4736ZM97.4243 33.3311H97.3511L93.938 39H90.5102L95.5932 31.3096L90.5835 23.5898H94.1284L97.4975 29.1709H97.5561L100.881 23.5898H104.368L99.3139 31.207L104.309 39H100.823L97.4243 33.3311ZM107.283 19.9424H110.461V23.5898H113.391V26.0947H110.461V34.5908C110.461 35.9238 111.047 36.5244 112.336 36.5244C112.659 36.5244 113.171 36.4951 113.376 36.4512V38.9561C113.025 39.0439 112.322 39.1025 111.619 39.1025C108.499 39.1025 107.283 37.916 107.283 34.9424V26.0947H105.041V23.5898H107.283V19.9424Z" fill="white"/>
<defs>
<linearGradient id="paint0_linear_1_1547" x1="84" y1="0" x2="84" y2="56" gradientUnits="userSpaceOnUse">
<stop stop-color="#FF730E"/>
<stop offset="0.295" stop-color="#C03900"/>
<stop offset="0.525" stop-color="#DBFF00"/>
<stop offset="0.97" stop-color="#CE7C00"/>
</linearGradient>
<linearGradient id="paint1_linear_1_1547" x1="44.7648" y1="36.6772" x2="47.673" y2="0.0982161" gradientUnits="userSpaceOnUse">
<stop stop-color="#580900"/>
<stop offset="0.0456923" stop-color="#762D00"/>
<stop offset="0.105" stop-color="#985500"/>
<stop offset="0.1682" stop-color="#B57700"/>
<stop offset="0.2351" stop-color="#CC9300"/>
<stop offset="0.3069" stop-color="#DEA900"/>
<stop offset="0.3859" stop-color="#EBB800"/>
<stop offset="0.4778" stop-color="#F3C100"/>
<stop offset="0.6129" stop-color="#F5C400"/>
<stop offset="0.6986" stop-color="#F2C100"/>
<stop offset="0.7681" stop-color="#E8B700"/>
<stop offset="0.832" stop-color="#D8A600"/>
<stop offset="0.8926" stop-color="#C18E00"/>
<stop offset="0.9502" stop-color="#A46F00"/>
<stop offset="1" stop-color="#854E00"/>
</linearGradient>
<radialGradient id="paint2_radial_1_1547" cx="0" cy="0" r="1" gradientUnits="userSpaceOnUse" gradientTransform="translate(82.8568 64.1272) scale(83.5547 114.888)">
<stop offset="0.0876682" stop-color="#999999"/>
<stop offset="0.2452" stop-color="#6B6B6B"/>
<stop offset="0.4029" stop-color="#454545"/>
<stop offset="0.5593" stop-color="#272727"/>
<stop offset="0.7127" stop-color="#111111"/>
<stop offset="0.8613" stop-color="#040404"/>
<stop offset="1"/>
</radialGradient>
<linearGradient id="paint3_linear_1_1547" x1="83.9968" y1="50.8972" x2="83.9968" y2="5.09017" gradientUnits="userSpaceOnUse">
<stop/>
<stop offset="0.1877" stop-color="#030303"/>
<stop offset="0.3209" stop-color="#0C0C0C"/>
<stop offset="0.4374" stop-color="#1C1C1C"/>
<stop offset="0.5441" stop-color="#323232"/>
<stop offset="0.6444" stop-color="#4E4E4E"/>
<stop offset="0.7397" stop-color="#727272"/>
<stop offset="0.8313" stop-color="#9B9B9B"/>
<stop offset="0.9174" stop-color="#CACACA"/>
<stop offset="1" stop-color="white"/>
</linearGradient>
</defs>
</svg>
