<svg width="80" height="85" viewBox="0 0 80 85" fill="none" xmlns="http://www.w3.org/2000/svg">
<path d="M40 80C62.0914 80 80 62.0914 80 40C80 17.9086 62.0914 0 40 0C17.9086 0 0 17.9086 0 40C0 62.0914 17.9086 80 40 80Z" fill="url(#paint0_linear_1_5591)"/>
<path d="M40 74.2203C58.8994 74.2203 74.2203 58.8994 74.2203 40C74.2203 21.1007 58.8994 5.77979 40 5.77979C21.1007 5.77979 5.77979 21.1007 5.77979 40C5.77979 58.8994 21.1007 74.2203 40 74.2203Z" fill="url(#paint1_linear_1_5591)"/>
<path d="M39.9999 72.7753C58.1013 72.7753 72.7753 58.1013 72.7753 39.9999C72.7753 21.8986 58.1013 7.22461 39.9999 7.22461C21.8986 7.22461 7.22461 21.8986 7.22461 39.9999C7.22461 58.1013 21.8986 72.7753 39.9999 72.7753Z" fill="#77018C"/>
<g style="mix-blend-mode:soft-light">
<path d="M39.9999 72.7753C58.1013 72.7753 72.7753 58.1013 72.7753 39.9999C72.7753 21.8986 58.1013 7.22461 39.9999 7.22461C21.8986 7.22461 7.22461 21.8986 7.22461 39.9999C7.22461 58.1013 21.8986 72.7753 39.9999 72.7753Z" fill="url(#paint2_radial_1_5591)"/>
</g>
<g style="mix-blend-mode:soft-light">
<path d="M39.9999 72.7753C58.1013 72.7753 72.7753 58.1013 72.7753 39.9999C72.7753 21.8986 58.1013 7.22461 39.9999 7.22461C21.8986 7.22461 7.22461 21.8986 7.22461 39.9999C7.22461 58.1013 21.8986 72.7753 39.9999 72.7753Z" fill="url(#paint3_radial_1_5591)"/>
</g>
<g style="mix-blend-mode:soft-light">
<path d="M39.9999 72.7753C58.1013 72.7753 72.7753 58.1013 72.7753 39.9999C72.7753 21.8986 58.1013 7.22461 39.9999 7.22461C21.8986 7.22461 7.22461 21.8986 7.22461 39.9999C7.22461 58.1013 21.8986 72.7753 39.9999 72.7753Z" fill="url(#paint4_radial_1_5591)"/>
</g>
<g style="mix-blend-mode:soft-light">
<path d="M39.9999 72.7753C58.1013 72.7753 72.7753 58.1013 72.7753 39.9999C72.7753 21.8986 58.1013 7.22461 39.9999 7.22461C21.8986 7.22461 7.22461 21.8986 7.22461 39.9999C7.22461 58.1013 21.8986 72.7753 39.9999 72.7753Z" fill="url(#paint5_linear_1_5591)"/>
</g>
<g filter="url(#filter0_d_1_5591)">
</g>
<g opacity="0.49" filter="url(#filter1_df_1_5591)">
<circle cx="44" cy="16" r="1" fill="white"/>
</g>
<g opacity="0.49" filter="url(#filter2_df_1_5591)">
<circle cx="16" cy="35" r="1" fill="white"/>
</g>
<g opacity="0.49" filter="url(#filter3_df_1_5591)">
<circle cx="65" cy="41" r="1" fill="white"/>
</g>
<g opacity="0.49" filter="url(#filter4_df_1_5591)">
<circle cx="34" cy="64" r="1" fill="white"/>
</g>
<defs>
<filter id="filter0_d_1_5591" x="17.0729" y="20.2174" width="43.8104" height="45.1111" filterUnits="userSpaceOnUse" color-interpolation-filters="sRGB">
<feFlood flood-opacity="0" result="BackgroundImageFix"/>
<feColorMatrix in="SourceAlpha" type="matrix" values="0 0 0 0 0 0 0 0 0 0 0 0 0 0 0 0 0 0 127 0" result="hardAlpha"/>
<feOffset/>
<feGaussianBlur stdDeviation="3.55"/>
<feComposite in2="hardAlpha" operator="out"/>
<feColorMatrix type="matrix" values="0 0 0 0 0.847256 0 0 0 0 0.182569 0 0 0 0 0.995833 0 0 0 1 0"/>
<feBlend mode="normal" in2="BackgroundImageFix" result="effect1_dropShadow_1_5591"/>
<feBlend mode="normal" in="SourceGraphic" in2="effect1_dropShadow_1_5591" result="shape"/>
</filter>
<filter id="filter1_df_1_5591" x="35" y="7" width="18" height="18" filterUnits="userSpaceOnUse" color-interpolation-filters="sRGB">
<feFlood flood-opacity="0" result="BackgroundImageFix"/>
<feColorMatrix in="SourceAlpha" type="matrix" values="0 0 0 0 0 0 0 0 0 0 0 0 0 0 0 0 0 0 127 0" result="hardAlpha"/>
<feMorphology radius="6" operator="dilate" in="SourceAlpha" result="effect1_dropShadow_1_5591"/>
<feOffset/>
<feGaussianBlur stdDeviation="1"/>
<feComposite in2="hardAlpha" operator="out"/>
<feColorMatrix type="matrix" values="0 0 0 0 0.74 0 0 0 0 0 0 0 0 0 1 0 0 0 1 0"/>
<feBlend mode="normal" in2="BackgroundImageFix" result="effect1_dropShadow_1_5591"/>
<feBlend mode="normal" in="SourceGraphic" in2="effect1_dropShadow_1_5591" result="shape"/>
<feGaussianBlur stdDeviation="0.8" result="effect2_foregroundBlur_1_5591"/>
</filter>
<filter id="filter2_df_1_5591" x="7" y="26" width="18" height="18" filterUnits="userSpaceOnUse" color-interpolation-filters="sRGB">
<feFlood flood-opacity="0" result="BackgroundImageFix"/>
<feColorMatrix in="SourceAlpha" type="matrix" values="0 0 0 0 0 0 0 0 0 0 0 0 0 0 0 0 0 0 127 0" result="hardAlpha"/>
<feMorphology radius="6" operator="dilate" in="SourceAlpha" result="effect1_dropShadow_1_5591"/>
<feOffset/>
<feGaussianBlur stdDeviation="1"/>
<feComposite in2="hardAlpha" operator="out"/>
<feColorMatrix type="matrix" values="0 0 0 0 0.74 0 0 0 0 0 0 0 0 0 1 0 0 0 1 0"/>
<feBlend mode="normal" in2="BackgroundImageFix" result="effect1_dropShadow_1_5591"/>
<feBlend mode="normal" in="SourceGraphic" in2="effect1_dropShadow_1_5591" result="shape"/>
<feGaussianBlur stdDeviation="0.8" result="effect2_foregroundBlur_1_5591"/>
</filter>
<filter id="filter3_df_1_5591" x="56" y="32" width="18" height="18" filterUnits="userSpaceOnUse" color-interpolation-filters="sRGB">
<feFlood flood-opacity="0" result="BackgroundImageFix"/>
<feColorMatrix in="SourceAlpha" type="matrix" values="0 0 0 0 0 0 0 0 0 0 0 0 0 0 0 0 0 0 127 0" result="hardAlpha"/>
<feMorphology radius="6" operator="dilate" in="SourceAlpha" result="effect1_dropShadow_1_5591"/>
<feOffset/>
<feGaussianBlur stdDeviation="1"/>
<feComposite in2="hardAlpha" operator="out"/>
<feColorMatrix type="matrix" values="0 0 0 0 0.74 0 0 0 0 0 0 0 0 0 1 0 0 0 1 0"/>
<feBlend mode="normal" in2="BackgroundImageFix" result="effect1_dropShadow_1_5591"/>
<feBlend mode="normal" in="SourceGraphic" in2="effect1_dropShadow_1_5591" result="shape"/>
<feGaussianBlur stdDeviation="0.8" result="effect2_foregroundBlur_1_5591"/>
</filter>
<filter id="filter4_df_1_5591" x="25" y="55" width="18" height="18" filterUnits="userSpaceOnUse" color-interpolation-filters="sRGB">
<feFlood flood-opacity="0" result="BackgroundImageFix"/>
<feColorMatrix in="SourceAlpha" type="matrix" values="0 0 0 0 0 0 0 0 0 0 0 0 0 0 0 0 0 0 127 0" result="hardAlpha"/>
<feMorphology radius="6" operator="dilate" in="SourceAlpha" result="effect1_dropShadow_1_5591"/>
<feOffset/>
<feGaussianBlur stdDeviation="1"/>
<feComposite in2="hardAlpha" operator="out"/>
<feColorMatrix type="matrix" values="0 0 0 0 0.74 0 0 0 0 0 0 0 0 0 1 0 0 0 1 0"/>
<feBlend mode="normal" in2="BackgroundImageFix" result="effect1_dropShadow_1_5591"/>
<feBlend mode="normal" in="SourceGraphic" in2="effect1_dropShadow_1_5591" result="shape"/>
<feGaussianBlur stdDeviation="0.8" result="effect2_foregroundBlur_1_5591"/>
</filter>
<linearGradient id="paint0_linear_1_5591" x1="39.9946" y1="0" x2="39.9946" y2="79.9892" gradientUnits="userSpaceOnUse">
<stop offset="0.1217" stop-color="#6A007D"/>
<stop offset="0.381" stop-color="#A100B0"/>
<stop offset="0.5899" stop-color="#F47AFF"/>
<stop offset="0.8254" stop-color="#A202B0"/>
<stop offset="1" stop-color="#C57AFF"/>
</linearGradient>
<linearGradient id="paint1_linear_1_5591" x1="39.9947" y1="74.2132" x2="39.9947" y2="5.77609" gradientUnits="userSpaceOnUse">
<stop offset="0.1217" stop-color="#6A007D"/>
<stop offset="0.381" stop-color="#A100B0"/>
<stop offset="0.5899" stop-color="#F47AFF"/>
<stop offset="0.8254" stop-color="#A202B0"/>
<stop offset="1" stop-color="#C57AFF"/>
</linearGradient>
<radialGradient id="paint2_radial_1_5591" cx="0" cy="0" r="1" gradientUnits="userSpaceOnUse" gradientTransform="translate(39.7642 73.1742) scale(65.8861)">
<stop stop-color="#9D9D9D"/>
<stop offset="0.073032" stop-color="#AEAEAE"/>
<stop offset="0.2225" stop-color="#CBCBCB"/>
<stop offset="0.3816" stop-color="#E2E2E2"/>
<stop offset="0.5528" stop-color="#F2F2F2"/>
<stop offset="0.7447" stop-color="#FCFCFC"/>
<stop offset="1" stop-color="white"/>
</radialGradient>
<radialGradient id="paint3_radial_1_5591" cx="0" cy="0" r="1" gradientUnits="userSpaceOnUse" gradientTransform="translate(39.5306 72.4733) scale(64.9579)">
<stop stop-color="#999999"/>
<stop offset="0.1727" stop-color="#6B6B6B"/>
<stop offset="0.3455" stop-color="#454545"/>
<stop offset="0.517" stop-color="#272727"/>
<stop offset="0.6851" stop-color="#111111"/>
<stop offset="0.848" stop-color="#040404"/>
<stop offset="1"/>
</radialGradient>
<radialGradient id="paint4_radial_1_5591" cx="0" cy="0" r="1" gradientUnits="userSpaceOnUse" gradientTransform="translate(39.5306 72.4733) scale(64.9579)">
<stop stop-color="#999999"/>
<stop offset="0.1727" stop-color="#6B6B6B"/>
<stop offset="0.3455" stop-color="#454545"/>
<stop offset="0.517" stop-color="#272727"/>
<stop offset="0.6851" stop-color="#111111"/>
<stop offset="0.848" stop-color="#040404"/>
<stop offset="1"/>
</radialGradient>
<linearGradient id="paint5_linear_1_5591" x1="39.9946" y1="72.7691" x2="39.9946" y2="7.21996" gradientUnits="userSpaceOnUse">
<stop/>
<stop offset="0.1877" stop-color="#030303"/>
<stop offset="0.3209" stop-color="#0C0C0C"/>
<stop offset="0.4374" stop-color="#1C1C1C"/>
<stop offset="0.5441" stop-color="#323232"/>
<stop offset="0.6444" stop-color="#4E4E4E"/>
<stop offset="0.7397" stop-color="#727272"/>
<stop offset="0.8313" stop-color="#9B9B9B"/>
<stop offset="0.9174" stop-color="#CACACA"/>
<stop offset="1" stop-color="white"/>
</linearGradient>
</defs>
</svg>
