<svg width="168" height="56" viewBox="0 0 168 56" fill="none" xmlns="http://www.w3.org/2000/svg">
<path d="M20.3636 56C9.1123 56 0 43.4118 0 28C0 12.5882 9.1123 0 20.3636 0H147.636C158.845 0 168 12.5294 168 28C168 43.4118 158.888 56 147.636 56H20.3636Z" fill="url(#paint0_linear_1_30204)"/>
<path d="M20.3634 53.4119C10.1388 53.4119 1.83936 42.0001 1.83936 27.9413C1.83936 13.8825 10.1388 2.4707 20.3634 2.4707H147.636C157.861 2.4707 166.16 13.8825 166.16 27.9413C166.16 42.0001 157.861 53.4119 147.636 53.4119H20.3634Z" fill="url(#paint1_linear_1_30204)"/>
<path d="M147.893 50.8826H20.107C11.0375 50.8826 3.6792 40.765 3.6792 28.2944V27.6473C3.6792 15.1767 11.0375 5.05908 20.107 5.05908H147.893C156.963 5.05908 164.321 15.1767 164.321 27.6473V28.2944C164.278 40.765 156.963 50.8826 147.893 50.8826Z" fill="#1AB301"/>
<g style="mix-blend-mode:screen">
<path d="M147.893 50.8826H20.107C11.0375 50.8826 3.6792 40.765 3.6792 28.2944V27.6473C3.6792 15.1767 11.0375 5.05908 20.107 5.05908H147.893C156.963 5.05908 164.321 15.1767 164.321 27.6473V28.2944C164.278 40.765 156.963 50.8826 147.893 50.8826Z" fill="url(#paint2_radial_1_30204)"/>
</g>
<g style="mix-blend-mode:screen">
<path d="M147.893 50.8826H20.107C11.0375 50.8826 3.6792 40.765 3.6792 28.2944V27.6473C3.6792 15.1767 11.0375 5.05908 20.107 5.05908H147.893C156.963 5.05908 164.321 15.1767 164.321 27.6473V28.2944C164.278 40.765 156.963 50.8826 147.893 50.8826Z" fill="url(#paint3_linear_1_30204)"/>
</g>
<path d="M34.1284 39H30.8471V20.6895H24.3725V17.8623H40.5884V20.6895H34.1284V39ZM40.0171 39V23.5898H43.0346V26.2119H43.1079C43.6206 24.4102 44.9975 23.3408 46.8139 23.3408C47.268 23.3408 47.6636 23.4141 47.8979 23.458V26.4023C47.6489 26.2998 47.0923 26.2266 46.477 26.2266C44.4409 26.2266 43.1811 27.5889 43.1811 29.7715V39H40.0171ZM51.3843 44.7422C51.1352 44.7422 50.3296 44.7129 50.0952 44.6689V42.1055C50.3296 42.1641 50.8569 42.1641 51.1206 42.1641C52.6001 42.1641 53.3764 41.5488 53.8598 39.9668C53.8598 39.9375 54.1382 39.0293 54.1382 39.0146L48.5718 23.5898H51.9995L55.9106 36.1289H55.9546L59.8657 23.5898H63.2055L57.4194 39.8057C56.1011 43.541 54.5923 44.7422 51.3843 44.7422ZM85.31 39L83.3764 33.2871H75.3198L73.3862 39H69.9731L77.605 17.8623H81.1499L88.7817 39H85.31ZM79.3042 21.3779L76.1548 30.6504H82.5415L79.3921 21.3779H79.3042ZM96.8823 36.4365C99.3579 36.4365 100.984 34.4297 100.984 31.251C100.984 28.0869 99.3579 26.0068 96.8823 26.0068C94.4507 26.0068 92.8686 28.043 92.8686 31.251C92.8686 34.4736 94.4507 36.4365 96.8823 36.4365ZM96.9116 44.8008C93.2788 44.8008 90.5835 42.8672 90.188 40.2012H93.3667C93.8208 41.4902 95.227 42.3398 97.0288 42.3398C99.5044 42.3398 100.969 40.9336 100.969 38.8242V36.29H100.911C100.046 37.96 98.23 39.0586 96.0327 39.0586C92.1655 39.0586 89.6313 36.041 89.6313 31.2363C89.6313 26.3877 92.1509 23.3408 96.1059 23.3408C98.2886 23.3408 100.076 24.4395 101.013 26.2266H101.072V23.5898H104.148V38.7217C104.148 42.3984 101.306 44.8008 96.9116 44.8008ZM112.673 36.7588C114.885 36.7588 116.614 35.2354 116.614 33.2285V32.0127L112.82 32.2471C110.93 32.3789 109.861 33.2139 109.861 34.5322C109.861 35.8799 110.974 36.7588 112.673 36.7588ZM111.794 39.2637C108.777 39.2637 106.667 37.3887 106.667 34.6201C106.667 31.9248 108.733 30.2695 112.395 30.0645L116.614 29.8154V28.6289C116.614 26.915 115.457 25.8896 113.523 25.8896C111.692 25.8896 110.549 26.7686 110.271 28.1455H107.283C107.458 25.3623 109.832 23.3115 113.64 23.3115C117.375 23.3115 119.763 25.2891 119.763 28.3799V39H116.731V36.4658H116.658C115.764 38.1797 113.816 39.2637 111.794 39.2637ZM122.942 39V23.5898H126.106V39H122.942ZM124.524 21.334C123.513 21.334 122.693 20.5283 122.693 19.5322C122.693 18.5215 123.513 17.7158 124.524 17.7158C125.549 17.7158 126.37 18.5215 126.37 19.5322C126.37 20.5283 125.549 21.334 124.524 21.334ZM129.343 39V23.5898H132.361V26.168H132.434C133.269 24.4102 134.91 23.3262 137.283 23.3262C140.681 23.3262 142.629 25.4941 142.629 29.0244V39H139.451V29.6396C139.451 27.3252 138.367 26.0508 136.169 26.0508C133.943 26.0508 132.507 27.6328 132.507 30.0205V39H129.343Z" fill="white"/>
<defs>
<linearGradient id="paint0_linear_1_30204" x1="84" y1="0" x2="84" y2="56" gradientUnits="userSpaceOnUse">
<stop stop-color="#FF730E"/>
<stop offset="0.295" stop-color="#C03900"/>
<stop offset="0.525" stop-color="#DBFF00"/>
<stop offset="0.97" stop-color="#CE7C00"/>
</linearGradient>
<linearGradient id="paint1_linear_1_30204" x1="44.7648" y1="36.6771" x2="47.673" y2="0.0981856" gradientUnits="userSpaceOnUse">
<stop stop-color="#580900"/>
<stop offset="0.0456923" stop-color="#762D00"/>
<stop offset="0.105" stop-color="#985500"/>
<stop offset="0.1682" stop-color="#B57700"/>
<stop offset="0.2351" stop-color="#CC9300"/>
<stop offset="0.3069" stop-color="#DEA900"/>
<stop offset="0.3859" stop-color="#EBB800"/>
<stop offset="0.4778" stop-color="#F3C100"/>
<stop offset="0.6129" stop-color="#F5C400"/>
<stop offset="0.6986" stop-color="#F2C100"/>
<stop offset="0.7681" stop-color="#E8B700"/>
<stop offset="0.832" stop-color="#D8A600"/>
<stop offset="0.8926" stop-color="#C18E00"/>
<stop offset="0.9502" stop-color="#A46F00"/>
<stop offset="1" stop-color="#854E00"/>
</linearGradient>
<radialGradient id="paint2_radial_1_30204" cx="0" cy="0" r="1" gradientUnits="userSpaceOnUse" gradientTransform="translate(82.8568 64.1272) scale(83.5547 114.888)">
<stop offset="0.0876682" stop-color="#999999"/>
<stop offset="0.2452" stop-color="#6B6B6B"/>
<stop offset="0.4029" stop-color="#454545"/>
<stop offset="0.5593" stop-color="#272727"/>
<stop offset="0.7127" stop-color="#111111"/>
<stop offset="0.8613" stop-color="#040404"/>
<stop offset="1"/>
</radialGradient>
<linearGradient id="paint3_linear_1_30204" x1="83.9968" y1="50.8972" x2="83.9968" y2="5.0902" gradientUnits="userSpaceOnUse">
<stop/>
<stop offset="0.1877" stop-color="#030303"/>
<stop offset="0.3209" stop-color="#0C0C0C"/>
<stop offset="0.4374" stop-color="#1C1C1C"/>
<stop offset="0.5441" stop-color="#323232"/>
<stop offset="0.6444" stop-color="#4E4E4E"/>
<stop offset="0.7397" stop-color="#727272"/>
<stop offset="0.8313" stop-color="#9B9B9B"/>
<stop offset="0.9174" stop-color="#CACACA"/>
<stop offset="1" stop-color="white"/>
</linearGradient>
</defs>
</svg>
