<svg width="72" height="32" viewBox="0 0 72 32" fill="none" xmlns="http://www.w3.org/2000/svg">
<rect x="5.6001" y="4.80615" width="66.3999" height="21.6" rx="10.8" fill="#8300E0"/>
<g opacity="0.64">
<path opacity="0.2" d="M25.4177 6.32871C24.3017 5.24871 21.7097 3.48472 19.8017 2.72872C19.1537 2.47672 18.4337 2.26072 17.7137 2.15272C11.1617 1.14472 4.10573 6.54471 1.90973 14.2847C0.109733 20.7647 2.34173 26.7047 6.91372 29.2247C8.71372 30.1967 11.1257 30.8447 12.8897 31.1327C19.2977 32.1407 26.1377 26.8847 28.2617 19.3607C29.7017 14.1407 28.4777 9.20871 25.4177 6.32871Z" fill="black"/>
<path opacity="0.4" d="M25.0217 6.00425C23.9057 4.96025 21.3497 3.16025 19.4417 2.44025C18.7937 2.18825 18.1097 1.97225 17.3537 1.86425C10.8018 0.820255 3.74576 6.22025 1.58576 13.9242C-0.214233 20.3682 2.01776 26.3082 6.55376 28.7922C8.35376 29.7642 10.7298 30.4122 12.5298 30.7002C18.8657 31.7082 25.7057 26.4882 27.7937 19.0002C29.2697 13.7802 28.0457 8.84824 25.0217 6.00425Z" fill="black"/>
<path opacity="0.6" d="M24.5895 5.68041C23.4735 4.63641 20.9175 2.83641 19.0095 2.11641C18.3615 1.90041 17.6775 1.68441 16.9575 1.57641C10.4415 0.532412 3.42154 5.89641 1.26155 13.5644C-0.538452 19.9724 1.69355 25.9124 6.22954 28.3604C8.02954 29.3324 10.4055 29.9804 12.1695 30.2684C18.4695 31.2764 25.3095 26.0564 27.3615 18.6044C28.8375 13.4204 27.6135 8.5244 24.5895 5.68041Z" fill="black"/>
<path opacity="0.8" d="M24.1576 5.3567C23.0416 4.3127 20.4856 2.5487 18.6136 1.8287C17.9656 1.5767 17.2816 1.3607 16.5616 1.2527C10.0816 0.208702 3.09761 5.5727 0.937613 13.2047C-0.862385 19.5767 1.36961 25.4807 5.86961 27.9287C7.6696 28.9007 10.0096 29.5487 11.7736 29.8367C18.0736 30.8447 24.8776 25.6607 26.9296 18.2447C28.3696 13.0607 27.1816 8.20069 24.1576 5.3567Z" fill="black"/>
<path d="M23.7256 5.03255C22.6096 3.98855 20.0896 2.18855 18.2176 1.50455C17.5696 1.25255 16.8856 1.07255 16.1656 0.928555C9.7216 -0.0794436 2.7376 5.24855 0.613606 12.8445C-1.15039 19.2165 1.00961 25.1565 5.5456 27.5325C7.3096 28.5405 9.6856 29.1525 11.4136 29.4045C17.6776 30.4125 24.4096 25.2285 26.4976 17.8485C27.9376 12.7005 26.7136 7.84055 23.7256 5.03255Z" fill="black"/>
</g>
<path d="M23.7256 5.03255C22.6096 3.98855 20.0896 2.18855 18.2176 1.50455C17.5696 1.25255 16.8856 1.07255 16.1656 0.928555C9.7216 -0.0794436 2.7376 5.24855 0.613606 12.8445C-1.15039 19.2165 1.00961 25.1565 5.5456 27.5325C7.3096 28.5405 9.6856 29.1525 11.4136 29.4045C17.6776 30.4125 24.4096 25.2285 26.4976 17.8485C27.9376 12.7005 26.7136 7.84055 23.7256 5.03255Z" fill="#E37508"/>
<path d="M23.4377 16.4447C21.4217 23.6086 14.8697 28.6126 8.74971 27.6046C2.62972 26.6326 -0.682277 20.0447 1.29772 12.8807C3.31372 5.71667 9.86571 0.712674 15.9857 1.72067C22.1057 2.69267 25.4177 9.31667 23.4377 16.4447Z" fill="url(#paint0_linear_1_20941)"/>
<path d="M21.7457 16.3005C20.0177 22.5645 14.2217 26.9205 8.82174 26.0565C3.45774 25.1565 0.505747 19.3965 2.23375 13.1325C3.99774 6.86854 9.75774 2.51255 15.1577 3.37654C20.5577 4.27654 23.5097 10.0365 21.7457 16.3005Z" fill="url(#paint1_linear_1_20941)"/>
<path d="M21.0257 16.4445C19.4417 22.1325 14.2217 26.1285 9.39767 25.3725C4.57368 24.5805 1.98168 19.3605 3.56568 13.6725C5.14967 7.9845 10.3697 3.9885 15.1937 4.7805C20.0177 5.5365 22.6097 10.7565 21.0257 16.4445Z" fill="url(#paint2_linear_1_20941)"/>
<path d="M24.2656 10.0366C24.5536 11.5846 24.5536 14.6446 23.6176 17.8486C23.0776 19.6486 25.3096 18.6766 25.6696 18.1366C26.2096 17.3086 26.8216 15.6886 26.7496 13.5286C26.6776 11.3686 26.4616 10.0006 25.1296 9.13659C23.7976 8.30859 24.0856 9.13659 24.2656 10.0366Z" fill="url(#paint3_linear_1_20941)"/>
<mask id="path-12-outside-1_1_20941" maskUnits="userSpaceOnUse" x="40.4399" y="11.2061" width="20" height="10" fill="black">
<rect fill="white" x="40.4399" y="11.2061" width="20" height="10"/>
<path d="M42.7686 20.2061V14.2945H42.7316L40.8279 15.5813V13.9149L42.7633 12.5965H44.6934V20.2061H42.7686ZM49.3709 20.3959C47.6465 20.3959 46.4125 19.3992 46.3861 17.9807H48.1422C48.2318 18.5291 48.7434 18.9088 49.3867 18.9088C50.1144 18.9088 50.6101 18.4025 50.6101 17.6801C50.6101 16.9313 50.1197 16.4145 49.392 16.4145C48.891 16.4145 48.4586 16.6465 48.216 17.0367H46.5074L46.866 12.5965H51.9601V14.0836H48.3637L48.2213 15.9609H48.2582C48.5482 15.4178 49.1441 15.075 49.9457 15.075C51.3906 15.075 52.4348 16.1455 52.4348 17.6326C52.4348 19.2885 51.2008 20.3959 49.3709 20.3959ZM56.4162 20.3959C54.4228 20.3959 53.1889 18.8772 53.1889 16.3881C53.1889 13.8885 54.4387 12.4014 56.4162 12.4014C58.3885 12.4014 59.633 13.8832 59.633 16.3828C59.633 18.8666 58.4043 20.3959 56.4162 20.3959ZM56.4162 18.8877C57.1703 18.8877 57.666 18.0334 57.666 16.3881C57.666 14.7428 57.1703 13.9096 56.4162 13.9096C55.6621 13.9096 55.1558 14.7481 55.1558 16.3828C55.1558 18.0281 55.6568 18.8877 56.4162 18.8877Z"/>
</mask>
<defs>
<linearGradient id="paint0_linear_1_20941" x1="13.6835" y1="13.8644" x2="12.6493" y2="14.4904" gradientUnits="userSpaceOnUse">
<stop stop-color="#FFFF61"/>
<stop offset="1" stop-color="#FFC70D"/>
</linearGradient>
<linearGradient id="paint1_linear_1_20941" x1="7.07675" y1="10.9305" x2="25.8926" y2="25.4129" gradientUnits="userSpaceOnUse">
<stop stop-color="#E37508"/>
<stop offset="1" stop-color="#FFC70D"/>
</linearGradient>
<linearGradient id="paint2_linear_1_20941" x1="12.8547" y1="14.7174" x2="11.2012" y2="15.7437" gradientUnits="userSpaceOnUse">
<stop stop-color="#FFFF61"/>
<stop offset="1" stop-color="#FFC70D"/>
</linearGradient>
<linearGradient id="paint3_linear_1_20941" x1="23.7938" y1="23.1545" x2="25.5959" y2="10.5399" gradientUnits="userSpaceOnUse">
<stop stop-color="#E37508"/>
<stop offset="1" stop-color="#FFC70D"/>
</linearGradient>
</defs>
</svg>
