<svg width="168" height="56" viewBox="0 0 168 56" fill="none" xmlns="http://www.w3.org/2000/svg">
<path d="M20.3636 56C9.1123 56 0 43.4118 0 28C0 12.5882 9.1123 0 20.3636 0H147.636C158.845 0 168 12.5294 168 28C168 43.4118 158.888 56 147.636 56H20.3636Z" fill="url(#paint0_linear_1_9293)"/>
<path d="M20.3634 53.4119C10.1388 53.4119 1.83936 42.0001 1.83936 27.9413C1.83936 13.8825 10.1388 2.4707 20.3634 2.4707H147.636C157.861 2.4707 166.16 13.8825 166.16 27.9413C166.16 42.0001 157.861 53.4119 147.636 53.4119H20.3634Z" fill="url(#paint1_linear_1_9293)"/>
<path d="M147.893 50.8826H20.107C11.0375 50.8826 3.6792 40.765 3.6792 28.2944V27.6473C3.6792 15.1767 11.0375 5.05908 20.107 5.05908H147.893C156.963 5.05908 164.321 15.1767 164.321 27.6473V28.2944C164.278 40.765 156.963 50.8826 147.893 50.8826Z" fill="#1AB301"/>
<g style="mix-blend-mode:screen">
<path d="M147.893 50.8826H20.107C11.0375 50.8826 3.6792 40.765 3.6792 28.2944V27.6473C3.6792 15.1767 11.0375 5.05908 20.107 5.05908H147.893C156.963 5.05908 164.321 15.1767 164.321 27.6473V28.2944C164.278 40.765 156.963 50.8826 147.893 50.8826Z" fill="url(#paint2_radial_1_9293)"/>
</g>
<g style="mix-blend-mode:screen">
<path d="M147.893 50.8826H20.107C11.0375 50.8826 3.6792 40.765 3.6792 28.2944V27.6473C3.6792 15.1767 11.0375 5.05908 20.107 5.05908H147.893C156.963 5.05908 164.321 15.1767 164.321 27.6473V28.2944C164.278 40.765 156.963 50.8826 147.893 50.8826Z" fill="url(#paint3_linear_1_9293)"/>
</g>
<path d="M35.6225 39.3516C29.6899 39.3516 25.9399 35.1621 25.9399 28.4238C25.9399 21.7295 29.7192 17.5107 35.6225 17.5107C40.4126 17.5107 44.0307 20.4551 44.5874 24.8643H41.3354C40.7495 22.1543 38.4936 20.3818 35.6225 20.3818C31.7846 20.3818 29.2944 23.5312 29.2944 28.4238C29.2944 33.3604 31.7553 36.4805 35.6372 36.4805C38.5815 36.4805 40.6762 34.9717 41.3354 32.4229H44.602C43.7964 36.7881 40.4858 39.3516 35.6225 39.3516ZM53.8012 39.293C49.3921 39.293 46.4917 36.2607 46.4917 31.2949C46.4917 26.3438 49.4067 23.3115 53.8012 23.3115C58.1958 23.3115 61.1108 26.3438 61.1108 31.2949C61.1108 36.2607 58.2104 39.293 53.8012 39.293ZM53.8012 36.6855C56.2915 36.6855 57.8882 34.7227 57.8882 31.2949C57.8882 27.8818 56.2768 25.9189 53.8012 25.9189C51.3257 25.9189 49.7143 27.8818 49.7143 31.2949C49.7143 34.7227 51.3257 36.6855 53.8012 36.6855ZM63.5571 39V23.5898H66.5747V26.168H66.6479C67.4829 24.4102 69.1235 23.3262 71.4966 23.3262C74.895 23.3262 76.8432 25.4941 76.8432 29.0244V39H73.6645V29.6396C73.6645 27.3252 72.5805 26.0508 70.3833 26.0508C68.1567 26.0508 66.7212 27.6328 66.7212 30.0205V39H63.5571ZM80.8276 19.9424H84.0063V23.5898H86.936V26.0947H84.0063V34.5908C84.0063 35.9238 84.5923 36.5244 85.8813 36.5244C86.2036 36.5244 86.7163 36.4951 86.9214 36.4512V38.9561C86.5698 39.0439 85.8667 39.1025 85.1636 39.1025C82.0434 39.1025 80.8276 37.916 80.8276 34.9424V26.0947H78.5864V23.5898H80.8276V19.9424ZM89.646 39V23.5898H92.81V39H89.646ZM91.228 21.334C90.2173 21.334 89.3969 20.5283 89.3969 19.5322C89.3969 18.5215 90.2173 17.7158 91.228 17.7158C92.2534 17.7158 93.0737 18.5215 93.0737 19.5322C93.0737 20.5283 92.2534 21.334 91.228 21.334ZM96.0473 39V23.5898H99.0649V26.168H99.1382C99.9731 24.4102 101.614 23.3262 103.987 23.3262C107.385 23.3262 109.333 25.4941 109.333 29.0244V39H106.155V29.6396C106.155 27.3252 105.071 26.0508 102.874 26.0508C100.647 26.0508 99.2114 27.6328 99.2114 30.0205V39H96.0473ZM125.608 23.5898V39H122.576V36.3926H122.502C121.653 38.2383 120.085 39.2783 117.727 39.2783C114.373 39.2783 112.322 37.0957 112.322 33.5654V23.5898H115.486V32.9502C115.486 35.2939 116.599 36.5537 118.782 36.5537C121.067 36.5537 122.444 34.9717 122.444 32.5693V23.5898H125.608ZM135.188 25.8604C132.976 25.8604 131.423 27.5449 131.262 29.874H138.967C138.894 27.5156 137.4 25.8604 135.188 25.8604ZM138.953 34.4736H141.956C141.516 37.2861 138.85 39.293 135.32 39.293C130.793 39.293 128.054 36.2314 128.054 31.3682C128.054 26.5342 130.837 23.3115 135.188 23.3115C139.465 23.3115 142.131 26.3291 142.131 31.002V32.0859H131.248V32.2764C131.248 34.957 132.859 36.7295 135.393 36.7295C137.195 36.7295 138.528 35.8213 138.953 34.4736Z" fill="white"/>
<defs>
<linearGradient id="paint0_linear_1_9293" x1="84" y1="0" x2="84" y2="56" gradientUnits="userSpaceOnUse">
<stop stop-color="#FF730E"/>
<stop offset="0.295" stop-color="#C03900"/>
<stop offset="0.525" stop-color="#DBFF00"/>
<stop offset="0.97" stop-color="#CE7C00"/>
</linearGradient>
<linearGradient id="paint1_linear_1_9293" x1="44.7648" y1="36.6771" x2="47.673" y2="0.0981856" gradientUnits="userSpaceOnUse">
<stop stop-color="#580900"/>
<stop offset="0.0456923" stop-color="#762D00"/>
<stop offset="0.105" stop-color="#985500"/>
<stop offset="0.1682" stop-color="#B57700"/>
<stop offset="0.2351" stop-color="#CC9300"/>
<stop offset="0.3069" stop-color="#DEA900"/>
<stop offset="0.3859" stop-color="#EBB800"/>
<stop offset="0.4778" stop-color="#F3C100"/>
<stop offset="0.6129" stop-color="#F5C400"/>
<stop offset="0.6986" stop-color="#F2C100"/>
<stop offset="0.7681" stop-color="#E8B700"/>
<stop offset="0.832" stop-color="#D8A600"/>
<stop offset="0.8926" stop-color="#C18E00"/>
<stop offset="0.9502" stop-color="#A46F00"/>
<stop offset="1" stop-color="#854E00"/>
</linearGradient>
<radialGradient id="paint2_radial_1_9293" cx="0" cy="0" r="1" gradientUnits="userSpaceOnUse" gradientTransform="translate(82.8568 64.1272) scale(83.5547 114.888)">
<stop offset="0.0876682" stop-color="#999999"/>
<stop offset="0.2452" stop-color="#6B6B6B"/>
<stop offset="0.4029" stop-color="#454545"/>
<stop offset="0.5593" stop-color="#272727"/>
<stop offset="0.7127" stop-color="#111111"/>
<stop offset="0.8613" stop-color="#040404"/>
<stop offset="1"/>
</radialGradient>
<linearGradient id="paint3_linear_1_9293" x1="83.9968" y1="50.8972" x2="83.9968" y2="5.0902" gradientUnits="userSpaceOnUse">
<stop/>
<stop offset="0.1877" stop-color="#030303"/>
<stop offset="0.3209" stop-color="#0C0C0C"/>
<stop offset="0.4374" stop-color="#1C1C1C"/>
<stop offset="0.5441" stop-color="#323232"/>
<stop offset="0.6444" stop-color="#4E4E4E"/>
<stop offset="0.7397" stop-color="#727272"/>
<stop offset="0.8313" stop-color="#9B9B9B"/>
<stop offset="0.9174" stop-color="#CACACA"/>
<stop offset="1" stop-color="white"/>
</linearGradient>
</defs>
</svg>
