<svg width="168" height="56" viewBox="0 0 168 56" fill="none" xmlns="http://www.w3.org/2000/svg">
<path d="M20.3636 56C9.1123 56 0 43.4118 0 28C0 12.5882 9.1123 0 20.3636 0H147.636C158.845 0 168 12.5294 168 28C168 43.4118 158.888 56 147.636 56H20.3636Z" fill="url(#paint0_linear_1_1440)"/>
<path d="M20.3634 53.4119C10.1388 53.4119 1.83936 42.0001 1.83936 27.9413C1.83936 13.8825 10.1388 2.4707 20.3634 2.4707H147.636C157.861 2.4707 166.16 13.8825 166.16 27.9413C166.16 42.0001 157.861 53.4119 147.636 53.4119H20.3634Z" fill="url(#paint1_linear_1_1440)"/>
<path d="M147.893 50.8826H20.107C11.0375 50.8826 3.6792 40.765 3.6792 28.2944V27.6473C3.6792 15.1767 11.0375 5.05908 20.107 5.05908H147.893C156.963 5.05908 164.321 15.1767 164.321 27.6473V28.2944C164.278 40.765 156.963 50.8826 147.893 50.8826Z" fill="#0186B3"/>
<g style="mix-blend-mode:screen">
<path d="M147.893 50.8826H20.107C11.0375 50.8826 3.6792 40.765 3.6792 28.2944V27.6473C3.6792 15.1767 11.0375 5.05908 20.107 5.05908H147.893C156.963 5.05908 164.321 15.1767 164.321 27.6473V28.2944C164.278 40.765 156.963 50.8826 147.893 50.8826Z" fill="url(#paint2_radial_1_1440)"/>
</g>
<g style="mix-blend-mode:screen">
<path d="M147.893 50.8826H20.107C11.0375 50.8826 3.6792 40.765 3.6792 28.2944V27.6473C3.6792 15.1767 11.0375 5.05908 20.107 5.05908H147.893C156.963 5.05908 164.321 15.1767 164.321 27.6473V28.2944C164.278 40.765 156.963 50.8826 147.893 50.8826Z" fill="url(#paint3_linear_1_1440)"/>
</g>
<path d="M50.7837 33.1113H54.021C54.2553 35.2061 56.2915 36.583 59.0747 36.583C61.7407 36.583 63.6596 35.2061 63.6596 33.3164C63.6596 31.6758 62.5024 30.6943 59.7632 30.0205L57.0239 29.3613C53.1421 28.4238 51.3403 26.6074 51.3403 23.6631C51.3403 20.0156 54.519 17.5107 59.0307 17.5107C63.4985 17.5107 66.56 20.0156 66.6626 23.6631H63.4692C63.2788 21.5537 61.5356 20.2793 58.9868 20.2793C56.438 20.2793 54.6948 21.5684 54.6948 23.4434C54.6948 24.9375 55.8081 25.8164 58.5327 26.4902L60.8618 27.0615C65.1977 28.0869 66.9995 29.8301 66.9995 32.9209C66.9995 36.876 63.8501 39.3516 58.8403 39.3516C54.1528 39.3516 50.9887 36.9346 50.7837 33.1113ZM69.6802 39V17.8623H72.8149V26.168H72.8882C73.7378 24.3662 75.4223 23.3262 77.7661 23.3262C81.1499 23.3262 83.1714 25.582 83.1714 29.0684V39H79.9927V29.6836C79.9927 27.4131 78.8501 26.0508 76.6235 26.0508C74.2798 26.0508 72.8442 27.6621 72.8442 30.0938V39H69.6802ZM92.854 39.293C88.4448 39.293 85.5444 36.2607 85.5444 31.2949C85.5444 26.3438 88.4594 23.3115 92.854 23.3115C97.2485 23.3115 100.164 26.3438 100.164 31.2949C100.164 36.2607 97.2632 39.293 92.854 39.293ZM92.854 36.6855C95.3442 36.6855 96.9409 34.7227 96.9409 31.2949C96.9409 27.8818 95.3296 25.9189 92.854 25.9189C90.3784 25.9189 88.7671 27.8818 88.7671 31.2949C88.7671 34.7227 90.3784 36.6855 92.854 36.6855ZM110.637 23.3408C114.548 23.3408 117.126 26.417 117.126 31.2949C117.126 36.1729 114.563 39.2637 110.696 39.2637C108.484 39.2637 106.726 38.1797 105.847 36.4658H105.774V44.0977H102.61V23.5898H105.671V26.2412H105.73C106.638 24.4688 108.411 23.3408 110.637 23.3408ZM109.802 36.583C112.307 36.583 113.874 34.5322 113.874 31.2949C113.874 28.0723 112.307 26.0068 109.802 26.0068C107.385 26.0068 105.759 28.1162 105.759 31.2949C105.759 34.5029 107.371 36.583 109.802 36.583Z" fill="white"/>
<defs>
<linearGradient id="paint0_linear_1_1440" x1="84" y1="0" x2="84" y2="56" gradientUnits="userSpaceOnUse">
<stop stop-color="#FF730E"/>
<stop offset="0.295" stop-color="#C03900"/>
<stop offset="0.525" stop-color="#DBFF00"/>
<stop offset="0.97" stop-color="#CE7C00"/>
</linearGradient>
<linearGradient id="paint1_linear_1_1440" x1="44.7648" y1="36.6771" x2="47.673" y2="0.0981856" gradientUnits="userSpaceOnUse">
<stop stop-color="#580900"/>
<stop offset="0.0456923" stop-color="#762D00"/>
<stop offset="0.105" stop-color="#985500"/>
<stop offset="0.1682" stop-color="#B57700"/>
<stop offset="0.2351" stop-color="#CC9300"/>
<stop offset="0.3069" stop-color="#DEA900"/>
<stop offset="0.3859" stop-color="#EBB800"/>
<stop offset="0.4778" stop-color="#F3C100"/>
<stop offset="0.6129" stop-color="#F5C400"/>
<stop offset="0.6986" stop-color="#F2C100"/>
<stop offset="0.7681" stop-color="#E8B700"/>
<stop offset="0.832" stop-color="#D8A600"/>
<stop offset="0.8926" stop-color="#C18E00"/>
<stop offset="0.9502" stop-color="#A46F00"/>
<stop offset="1" stop-color="#854E00"/>
</linearGradient>
<radialGradient id="paint2_radial_1_1440" cx="0" cy="0" r="1" gradientUnits="userSpaceOnUse" gradientTransform="translate(82.8568 64.1272) scale(83.5547 114.888)">
<stop offset="0.0876682" stop-color="#999999"/>
<stop offset="0.2452" stop-color="#6B6B6B"/>
<stop offset="0.4029" stop-color="#454545"/>
<stop offset="0.5593" stop-color="#272727"/>
<stop offset="0.7127" stop-color="#111111"/>
<stop offset="0.8613" stop-color="#040404"/>
<stop offset="1"/>
</radialGradient>
<linearGradient id="paint3_linear_1_1440" x1="83.9968" y1="50.8972" x2="83.9968" y2="5.0902" gradientUnits="userSpaceOnUse">
<stop/>
<stop offset="0.1877" stop-color="#030303"/>
<stop offset="0.3209" stop-color="#0C0C0C"/>
<stop offset="0.4374" stop-color="#1C1C1C"/>
<stop offset="0.5441" stop-color="#323232"/>
<stop offset="0.6444" stop-color="#4E4E4E"/>
<stop offset="0.7397" stop-color="#727272"/>
<stop offset="0.8313" stop-color="#9B9B9B"/>
<stop offset="0.9174" stop-color="#CACACA"/>
<stop offset="1" stop-color="white"/>
</linearGradient>
</defs>
</svg>
