<svg width="168" height="56" viewBox="0 0 168 56" fill="none" xmlns="http://www.w3.org/2000/svg">
<path opacity="0.28" d="M20.3636 56C9.1123 56 0 43.4118 0 28C0 12.5882 9.1123 0 20.3636 0H147.636C158.845 0 168 12.5294 168 28C168 43.4118 158.888 56 147.636 56H20.3636Z" fill="url(#paint0_linear_1_1554)"/>
<path opacity="0.28" d="M20.3634 53.4119C10.1388 53.4119 1.83936 42.0001 1.83936 27.9413C1.83936 13.8825 10.1388 2.47073 20.3634 2.47073H147.636C157.861 2.47073 166.16 13.8825 166.16 27.9413C166.16 42.0001 157.861 53.4119 147.636 53.4119H20.3634Z" fill="url(#paint1_linear_1_1554)"/>
<path opacity="0.28" d="M147.893 50.8826H20.107C11.0375 50.8826 3.6792 40.7649 3.6792 28.2943V27.6473C3.6792 15.1767 11.0375 5.05905 20.107 5.05905H147.893C156.963 5.05905 164.321 15.1767 164.321 27.6473V28.2943C164.278 40.7649 156.963 50.8826 147.893 50.8826Z" fill="#0186B3"/>
<g style="mix-blend-mode:screen" opacity="0.28">
<path d="M147.893 50.8826H20.107C11.0375 50.8826 3.6792 40.7649 3.6792 28.2943V27.6473C3.6792 15.1767 11.0375 5.05905 20.107 5.05905H147.893C156.963 5.05905 164.321 15.1767 164.321 27.6473V28.2943C164.278 40.7649 156.963 50.8826 147.893 50.8826Z" fill="url(#paint2_radial_1_1554)"/>
</g>
<g style="mix-blend-mode:screen" opacity="0.26">
<path d="M147.893 50.8826H20.107C11.0375 50.8826 3.6792 40.7649 3.6792 28.2943V27.6473C3.6792 15.1767 11.0375 5.05905 20.107 5.05905H147.893C156.963 5.05905 164.321 15.1767 164.321 27.6473V28.2943C164.278 40.7649 156.963 50.8826 147.893 50.8826Z" fill="url(#paint3_linear_1_1554)"/>
</g>
<path d="M56.4819 33.1113H59.7192C59.9536 35.2061 61.9897 36.583 64.7729 36.583C67.4389 36.583 69.3579 35.2061 69.3579 33.3164C69.3579 31.6758 68.2007 30.6943 65.4614 30.0205L62.7221 29.3613C58.8403 28.4238 57.0386 26.6074 57.0386 23.6631C57.0386 20.0156 60.2173 17.5107 64.729 17.5107C69.1968 17.5107 72.2583 20.0156 72.3608 23.6631H69.1675C68.977 21.5537 67.2339 20.2793 64.685 20.2793C62.1362 20.2793 60.393 21.5684 60.393 23.4434C60.393 24.9375 61.5063 25.8164 64.2309 26.4902L66.56 27.0615C70.896 28.0869 72.6977 29.8301 72.6977 32.9209C72.6977 36.876 69.5483 39.3516 64.5386 39.3516C59.8511 39.3516 56.687 36.9346 56.4819 33.1113ZM78.5718 30.1963L84.7973 23.5898H88.518L82.1313 30.2256L88.7671 39H85.0903L79.8608 32.1592L78.5425 33.4629V39H75.3784V17.8623H78.5425V30.1963H78.5718ZM90.5102 39V23.5898H93.6743V39H90.5102ZM92.0923 21.334C91.0815 21.334 90.2612 20.5283 90.2612 19.5322C90.2612 18.5215 91.0815 17.7158 92.0923 17.7158C93.1177 17.7158 93.938 18.5215 93.938 19.5322C93.938 20.5283 93.1177 21.334 92.0923 21.334ZM104.939 23.3408C108.85 23.3408 111.428 26.417 111.428 31.2949C111.428 36.1729 108.865 39.2637 104.998 39.2637C102.786 39.2637 101.028 38.1797 100.149 36.4658H100.076V44.0977H96.9116V23.5898H99.9731V26.2412H100.032C100.94 24.4688 102.712 23.3408 104.939 23.3408ZM104.104 36.583C106.609 36.583 108.176 34.5322 108.176 31.2949C108.176 28.0723 106.609 26.0068 104.104 26.0068C101.687 26.0068 100.061 28.1162 100.061 31.2949C100.061 34.5029 101.672 36.583 104.104 36.583Z" fill="white"/>
<defs>
<linearGradient id="paint0_linear_1_1554" x1="84" y1="0" x2="84" y2="56" gradientUnits="userSpaceOnUse">
<stop stop-color="#FF730E"/>
<stop offset="0.295" stop-color="#C03900"/>
<stop offset="0.525" stop-color="#DBFF00"/>
<stop offset="0.97" stop-color="#CE7C00"/>
</linearGradient>
<linearGradient id="paint1_linear_1_1554" x1="44.7648" y1="36.6772" x2="47.673" y2="0.0982161" gradientUnits="userSpaceOnUse">
<stop stop-color="#580900"/>
<stop offset="0.0456923" stop-color="#762D00"/>
<stop offset="0.105" stop-color="#985500"/>
<stop offset="0.1682" stop-color="#B57700"/>
<stop offset="0.2351" stop-color="#CC9300"/>
<stop offset="0.3069" stop-color="#DEA900"/>
<stop offset="0.3859" stop-color="#EBB800"/>
<stop offset="0.4778" stop-color="#F3C100"/>
<stop offset="0.6129" stop-color="#F5C400"/>
<stop offset="0.6986" stop-color="#F2C100"/>
<stop offset="0.7681" stop-color="#E8B700"/>
<stop offset="0.832" stop-color="#D8A600"/>
<stop offset="0.8926" stop-color="#C18E00"/>
<stop offset="0.9502" stop-color="#A46F00"/>
<stop offset="1" stop-color="#854E00"/>
</linearGradient>
<radialGradient id="paint2_radial_1_1554" cx="0" cy="0" r="1" gradientUnits="userSpaceOnUse" gradientTransform="translate(82.8568 64.1272) scale(83.5547 114.888)">
<stop offset="0.0876682" stop-color="#999999"/>
<stop offset="0.2452" stop-color="#6B6B6B"/>
<stop offset="0.4029" stop-color="#454545"/>
<stop offset="0.5593" stop-color="#272727"/>
<stop offset="0.7127" stop-color="#111111"/>
<stop offset="0.8613" stop-color="#040404"/>
<stop offset="1"/>
</radialGradient>
<linearGradient id="paint3_linear_1_1554" x1="83.9968" y1="50.8972" x2="83.9968" y2="5.09017" gradientUnits="userSpaceOnUse">
<stop/>
<stop offset="0.1877" stop-color="#030303"/>
<stop offset="0.3209" stop-color="#0C0C0C"/>
<stop offset="0.4374" stop-color="#1C1C1C"/>
<stop offset="0.5441" stop-color="#323232"/>
<stop offset="0.6444" stop-color="#4E4E4E"/>
<stop offset="0.7397" stop-color="#727272"/>
<stop offset="0.8313" stop-color="#9B9B9B"/>
<stop offset="0.9174" stop-color="#CACACA"/>
<stop offset="1" stop-color="white"/>
</linearGradient>
</defs>
</svg>
