<svg width="168" height="56" viewBox="0 0 168 56" fill="none" xmlns="http://www.w3.org/2000/svg">
<path d="M20.3636 56C9.1123 56 0 43.4118 0 28C0 12.5882 9.1123 0 20.3636 0H147.636C158.845 0 168 12.5294 168 28C168 43.4118 158.888 56 147.636 56H20.3636Z" fill="url(#paint0_linear_1_7516)"/>
<path d="M20.3634 53.4119C10.1388 53.4119 1.83936 42.0001 1.83936 27.9413C1.83936 13.8825 10.1388 2.4707 20.3634 2.4707H147.636C157.861 2.4707 166.16 13.8825 166.16 27.9413C166.16 42.0001 157.861 53.4119 147.636 53.4119H20.3634Z" fill="url(#paint1_linear_1_7516)"/>
<path d="M147.893 50.8826H20.107C11.0375 50.8826 3.6792 40.765 3.6792 28.2944V27.6473C3.6792 15.1767 11.0375 5.05908 20.107 5.05908H147.893C156.963 5.05908 164.321 15.1767 164.321 27.6473V28.2944C164.278 40.765 156.963 50.8826 147.893 50.8826Z" fill="#1AB301"/>
<g style="mix-blend-mode:screen">
<path d="M147.893 50.8826H20.107C11.0375 50.8826 3.6792 40.765 3.6792 28.2944V27.6473C3.6792 15.1767 11.0375 5.05908 20.107 5.05908H147.893C156.963 5.05908 164.321 15.1767 164.321 27.6473V28.2944C164.278 40.765 156.963 50.8826 147.893 50.8826Z" fill="url(#paint2_radial_1_7516)"/>
</g>
<g style="mix-blend-mode:screen">
<path d="M147.893 50.8826H20.107C11.0375 50.8826 3.6792 40.765 3.6792 28.2944V27.6473C3.6792 15.1767 11.0375 5.05908 20.107 5.05908H147.893C156.963 5.05908 164.321 15.1767 164.321 27.6473V28.2944C164.278 40.765 156.963 50.8826 147.893 50.8826Z" fill="url(#paint3_linear_1_7516)"/>
</g>
<path d="M55.8813 33.1113H59.1186C59.353 35.2061 61.3891 36.583 64.1723 36.583C66.8384 36.583 68.7573 35.2061 68.7573 33.3164C68.7573 31.6758 67.6001 30.6943 64.8608 30.0205L62.1216 29.3613C58.2397 28.4238 56.438 26.6074 56.438 23.6631C56.438 20.0156 59.6167 17.5107 64.1284 17.5107C68.5962 17.5107 71.6577 20.0156 71.7602 23.6631H68.5669C68.3764 21.5537 66.6333 20.2793 64.0844 20.2793C61.5356 20.2793 59.7925 21.5684 59.7925 23.4434C59.7925 24.9375 60.9057 25.8164 63.6303 26.4902L65.9594 27.0615C70.2954 28.0869 72.0971 29.8301 72.0971 32.9209C72.0971 36.876 68.9477 39.3516 63.938 39.3516C59.2505 39.3516 56.0864 36.9346 55.8813 33.1113ZM82.688 23.3408C86.5991 23.3408 89.1772 26.417 89.1772 31.2949C89.1772 36.1729 86.6137 39.2637 82.7466 39.2637C80.5346 39.2637 78.7768 38.1797 77.8979 36.4658H77.8247V44.0977H74.6606V23.5898H77.7221V26.2412H77.7807C78.6889 24.4688 80.4614 23.3408 82.688 23.3408ZM81.853 36.583C84.3579 36.583 85.9253 34.5322 85.9253 31.2949C85.9253 28.0723 84.3579 26.0068 81.853 26.0068C79.436 26.0068 77.81 28.1162 77.81 31.2949C77.81 34.5029 79.4214 36.583 81.853 36.583ZM91.7261 39V23.5898H94.8901V39H91.7261ZM93.3081 21.334C92.2973 21.334 91.477 20.5283 91.477 19.5322C91.477 18.5215 92.2973 17.7158 93.3081 17.7158C94.3335 17.7158 95.1538 18.5215 95.1538 19.5322C95.1538 20.5283 94.3335 21.334 93.3081 21.334ZM98.1274 39V23.5898H101.145V26.168H101.218C102.053 24.4102 103.694 23.3262 106.067 23.3262C109.465 23.3262 111.414 25.4941 111.414 29.0244V39H108.235V29.6396C108.235 27.3252 107.151 26.0508 104.954 26.0508C102.727 26.0508 101.291 27.6328 101.291 30.0205V39H98.1274Z" fill="white"/>
<defs>
<linearGradient id="paint0_linear_1_7516" x1="84" y1="0" x2="84" y2="56" gradientUnits="userSpaceOnUse">
<stop stop-color="#FF730E"/>
<stop offset="0.295" stop-color="#C03900"/>
<stop offset="0.525" stop-color="#DBFF00"/>
<stop offset="0.97" stop-color="#CE7C00"/>
</linearGradient>
<linearGradient id="paint1_linear_1_7516" x1="44.7648" y1="36.6771" x2="47.673" y2="0.0981856" gradientUnits="userSpaceOnUse">
<stop stop-color="#580900"/>
<stop offset="0.0456923" stop-color="#762D00"/>
<stop offset="0.105" stop-color="#985500"/>
<stop offset="0.1682" stop-color="#B57700"/>
<stop offset="0.2351" stop-color="#CC9300"/>
<stop offset="0.3069" stop-color="#DEA900"/>
<stop offset="0.3859" stop-color="#EBB800"/>
<stop offset="0.4778" stop-color="#F3C100"/>
<stop offset="0.6129" stop-color="#F5C400"/>
<stop offset="0.6986" stop-color="#F2C100"/>
<stop offset="0.7681" stop-color="#E8B700"/>
<stop offset="0.832" stop-color="#D8A600"/>
<stop offset="0.8926" stop-color="#C18E00"/>
<stop offset="0.9502" stop-color="#A46F00"/>
<stop offset="1" stop-color="#854E00"/>
</linearGradient>
<radialGradient id="paint2_radial_1_7516" cx="0" cy="0" r="1" gradientUnits="userSpaceOnUse" gradientTransform="translate(82.8568 64.1272) scale(83.5547 114.888)">
<stop offset="0.0876682" stop-color="#999999"/>
<stop offset="0.2452" stop-color="#6B6B6B"/>
<stop offset="0.4029" stop-color="#454545"/>
<stop offset="0.5593" stop-color="#272727"/>
<stop offset="0.7127" stop-color="#111111"/>
<stop offset="0.8613" stop-color="#040404"/>
<stop offset="1"/>
</radialGradient>
<linearGradient id="paint3_linear_1_7516" x1="83.9968" y1="50.8972" x2="83.9968" y2="5.0902" gradientUnits="userSpaceOnUse">
<stop/>
<stop offset="0.1877" stop-color="#030303"/>
<stop offset="0.3209" stop-color="#0C0C0C"/>
<stop offset="0.4374" stop-color="#1C1C1C"/>
<stop offset="0.5441" stop-color="#323232"/>
<stop offset="0.6444" stop-color="#4E4E4E"/>
<stop offset="0.7397" stop-color="#727272"/>
<stop offset="0.8313" stop-color="#9B9B9B"/>
<stop offset="0.9174" stop-color="#CACACA"/>
<stop offset="1" stop-color="white"/>
</linearGradient>
</defs>
</svg>
