<svg width="15" height="15" viewBox="0 0 15 15" fill="none" xmlns="http://www.w3.org/2000/svg">
<g opacity="0.64">
<path opacity="0.2" d="M12.3982 2.72072C11.8539 2.19393 10.5895 1.33349 9.65886 0.964726C9.34278 0.841806 8.99158 0.736446 8.64038 0.683766C5.44447 0.192087 2.00271 2.82608 0.93155 6.60148C0.053551 9.76228 1.14227 12.6597 3.37239 13.8889C4.25039 14.363 5.42691 14.6791 6.28734 14.8196C9.41302 15.3112 12.7494 12.7475 13.7855 9.07744C14.4879 6.53124 13.8908 4.12552 12.3982 2.72072Z" fill="black"/>
<path opacity="0.4" d="M12.2049 2.56237C11.6605 2.05313 10.4138 1.17513 9.48311 0.823935C9.16703 0.701015 8.83339 0.595655 8.46463 0.542975C5.26872 0.0337355 1.82696 2.66773 0.773361 6.42557C-0.104638 9.5688 0.984081 12.4662 3.19664 13.6778C4.07464 14.152 5.2336 14.468 6.11159 14.6085C9.20215 15.1002 12.5385 12.554 13.557 8.90153C14.277 6.35533 13.6799 3.94961 12.2049 2.56237Z" fill="black"/>
<path opacity="0.6" d="M11.9942 2.40454C11.4499 1.89531 10.2031 1.01731 9.27241 0.666106C8.95633 0.560747 8.62269 0.455387 8.27149 0.402707C5.09314 -0.106533 1.66894 2.50991 0.615341 6.25018C-0.262658 9.37586 0.826061 12.2733 3.03862 13.4673C3.91662 13.9415 5.07558 14.2575 5.93602 14.398C9.00901 14.8897 12.3454 12.3435 13.3463 8.70858C14.0663 6.17994 13.4692 3.79178 11.9942 2.40454Z" fill="black"/>
<path opacity="0.8" d="M11.7835 2.24635C11.2392 1.73711 9.99241 0.876673 9.07929 0.525474C8.76321 0.402554 8.42957 0.297194 8.07837 0.244514C4.91757 -0.264726 1.51093 2.35171 0.457336 6.07443C-0.420663 9.18254 0.668055 12.0624 2.86305 13.2565C3.74105 13.7306 4.88245 14.0467 5.74289 14.1871C8.81589 14.6788 12.1347 12.1502 13.1356 8.53283C13.838 6.00419 13.2586 3.63359 11.7835 2.24635Z" fill="black"/>
<path d="M11.5728 2.0884C11.0285 1.57916 9.79925 0.70116 8.88613 0.36752C8.57005 0.244601 8.23641 0.156801 7.88521 0.0865608C4.74198 -0.405119 1.33534 2.19376 0.299303 5.89891C-0.561136 9.00703 0.492463 11.9044 2.70502 13.0634C3.56546 13.5551 4.72442 13.8536 5.5673 13.9765C8.62273 14.4682 11.9064 11.9395 12.9249 8.33975C13.6273 5.82867 13.0303 3.45808 11.5728 2.0884Z" fill="black"/>
</g>
<path d="M11.5728 2.0884C11.0285 1.57916 9.79925 0.70116 8.88613 0.36752C8.57005 0.244601 8.23641 0.156801 7.88521 0.0865608C4.74198 -0.405119 1.33534 2.19376 0.299303 5.89891C-0.561136 9.00703 0.492463 11.9044 2.70502 13.0634C3.56546 13.5551 4.72442 13.8536 5.5673 13.9765C8.62273 14.4682 11.9064 11.9395 12.9249 8.33975C13.6273 5.82867 13.0303 3.45808 11.5728 2.0884Z" fill="#E37508"/>
<path d="M11.4323 7.65493C10.449 11.1494 7.25306 13.5902 4.26786 13.0985C1.28266 12.6244 -0.332854 9.41092 0.632945 5.91649C1.6163 2.42205 4.81222 -0.0187852 7.79742 0.472894C10.7826 0.947014 12.3981 4.17805 11.4323 7.65493Z" fill="url(#paint0_linear_1_10002)"/>
<path d="M10.607 7.5846C9.76415 10.64 6.93699 12.7648 4.303 12.3434C1.68656 11.9044 0.246641 9.09476 1.08952 6.03932C1.94996 2.98388 4.75956 0.859126 7.39355 1.28057C10.0275 1.71956 11.4675 4.52916 10.607 7.5846Z" fill="url(#paint1_linear_1_10002)"/>
<path d="M10.2558 7.65476C9.48314 10.4292 6.93695 12.3784 4.58391 12.0096C2.23087 11.6233 0.966554 9.07711 1.73919 6.30264C2.51183 3.52816 5.05803 1.579 7.41107 1.96532C9.7641 2.33408 11.0284 4.88028 10.2558 7.65476Z" fill="url(#paint2_linear_1_10002)"/>
<path d="M11.8361 4.52925C11.9765 5.28433 11.9765 6.77693 11.52 8.33976C11.2566 9.21776 12.3453 8.74364 12.5209 8.48024C12.7843 8.07636 13.0828 7.28617 13.0477 6.23257C13.0126 5.17897 12.9072 4.51169 12.2575 4.09025C11.6078 3.68637 11.7483 4.09025 11.8361 4.52925Z" fill="url(#paint3_linear_1_10002)"/>
<defs>
<linearGradient id="paint0_linear_1_10002" x1="6.67446" y1="6.39634" x2="6.17002" y2="6.7017" gradientUnits="userSpaceOnUse">
<stop stop-color="#FFFF61"/>
<stop offset="1" stop-color="#FFC70D"/>
</linearGradient>
<linearGradient id="paint1_linear_1_10002" x1="3.45183" y1="4.96521" x2="12.6298" y2="12.0294" gradientUnits="userSpaceOnUse">
<stop stop-color="#E37508"/>
<stop offset="1" stop-color="#FFC70D"/>
</linearGradient>
<linearGradient id="paint2_linear_1_10002" x1="6.27018" y1="6.81231" x2="5.46363" y2="7.31295" gradientUnits="userSpaceOnUse">
<stop stop-color="#FFFF61"/>
<stop offset="1" stop-color="#FFC70D"/>
</linearGradient>
<linearGradient id="paint3_linear_1_10002" x1="11.6059" y1="10.9279" x2="12.485" y2="4.77474" gradientUnits="userSpaceOnUse">
<stop stop-color="#E37508"/>
<stop offset="1" stop-color="#FFC70D"/>
</linearGradient>
</defs>
</svg>
