<svg width="228" height="64" viewBox="0 0 228 64" fill="none" xmlns="http://www.w3.org/2000/svg">
<g filter="url(#filter0_d_1_1454)">
<path d="M30.6667 55.3643C15.9328 55.3643 4 42.919 4 27.6822C4 12.4453 15.9328 0 30.6667 0H197.333C212.011 0 224 12.3872 224 27.6822C224 42.9771 212.067 55.3643 197.333 55.3643H30.6667Z" fill="url(#paint0_linear_1_1454)"/>
<path d="M30.6664 52.8057C17.277 52.8057 6.40869 41.5234 6.40869 27.6242C6.40869 13.725 17.277 2.44275 30.6664 2.44275H197.333C210.722 2.44275 221.591 13.725 221.591 27.6242C221.591 41.5234 210.722 52.8057 197.333 52.8057H30.6664Z" fill="url(#paint1_linear_1_1454)"/>
<path d="M197.67 50.305H30.331C18.4542 50.305 8.81836 40.3022 8.81836 27.9731V27.3334C8.81836 15.0044 18.4542 5.00159 30.331 5.00159H197.67C209.547 5.00159 219.182 15.0044 219.182 27.3334V27.9731C219.126 40.3022 209.547 50.305 197.67 50.305Z" fill="#77018C"/>
<g style="mix-blend-mode:screen">
<path d="M197.67 50.305H30.331C18.4542 50.305 8.81836 40.3022 8.81836 27.9731V27.3334C8.81836 15.0044 18.4542 5.00159 30.331 5.00159H197.67C209.547 5.00159 219.182 15.0044 219.182 27.3334V27.9731C219.126 40.3022 209.547 50.305 197.67 50.305Z" fill="url(#paint2_radial_1_1454)"/>
</g>
<g style="mix-blend-mode:screen">
<path d="M197.67 50.305H30.331C18.4542 50.305 8.81836 40.3022 8.81836 27.9731V27.3334C8.81836 15.0044 18.4542 5.00159 30.331 5.00159H197.67C209.547 5.00159 219.182 15.0044 219.182 27.3334V27.9731C219.126 40.3022 209.547 50.305 197.67 50.305Z" fill="url(#paint3_linear_1_1454)"/>
</g>
</g>
<path d="M88.2975 17.9259H96.2223C100.324 17.9259 103.18 20.7531 103.18 24.8693C103.18 29.0001 100.265 31.8419 96.1198 31.8419H91.5788V39.0636H88.2975V17.9259ZM91.5788 20.6945V29.088H95.3434C98.1999 29.088 99.8259 27.5499 99.8259 24.8839C99.8259 22.2179 98.1999 20.6945 95.3581 20.6945H91.5788ZM105.788 39.0636V17.9259H108.952V39.0636H105.788ZM117.594 36.8224C119.806 36.8224 121.535 35.299 121.535 33.2921V32.0763L117.741 32.3107C115.851 32.4425 114.782 33.2775 114.782 34.5958C114.782 35.9435 115.895 36.8224 117.594 36.8224ZM116.716 39.3273C113.698 39.3273 111.589 37.4523 111.589 34.6837C111.589 31.9884 113.654 30.3331 117.316 30.1281L121.535 29.879V28.6925C121.535 26.9786 120.378 25.9532 118.444 25.9532C116.613 25.9532 115.47 26.8322 115.192 28.2091H112.204C112.38 25.4259 114.753 23.3751 118.561 23.3751C122.297 23.3751 124.684 25.3527 124.684 28.4435V39.0636H121.652V36.5294H121.579C120.685 38.2433 118.737 39.3273 116.716 39.3273ZM129.284 44.8058C129.035 44.8058 128.229 44.7765 127.995 44.7325V42.1691C128.229 42.2277 128.757 42.2277 129.02 42.2277C130.5 42.2277 131.276 41.6124 131.759 40.0304C131.759 40.0011 132.038 39.0929 132.038 39.0782L126.471 23.6534H129.899L133.81 36.1925H133.854L137.765 23.6534H141.105L135.319 39.8693C134.001 43.6046 132.492 44.8058 129.284 44.8058Z" fill="white"/>
<defs>
<filter id="filter0_d_1_1454" x="0" y="0" width="228" height="63.3644" filterUnits="userSpaceOnUse" color-interpolation-filters="sRGB">
<feFlood flood-opacity="0" result="BackgroundImageFix"/>
<feColorMatrix in="SourceAlpha" type="matrix" values="0 0 0 0 0 0 0 0 0 0 0 0 0 0 0 0 0 0 127 0" result="hardAlpha"/>
<feOffset dy="4"/>
<feGaussianBlur stdDeviation="2"/>
<feComposite in2="hardAlpha" operator="out"/>
<feColorMatrix type="matrix" values="0 0 0 0 0 0 0 0 0 0 0 0 0 0 0 0 0 0 0.25 0"/>
<feBlend mode="normal" in2="BackgroundImageFix" result="effect1_dropShadow_1_1454"/>
<feBlend mode="normal" in="SourceGraphic" in2="effect1_dropShadow_1_1454" result="shape"/>
</filter>
<linearGradient id="paint0_linear_1_1454" x1="114" y1="0" x2="114" y2="55.3643" gradientUnits="userSpaceOnUse">
<stop stop-color="#FF730E"/>
<stop offset="0.295" stop-color="#C03900"/>
<stop offset="0.525" stop-color="#DBFF00"/>
<stop offset="0.97" stop-color="#CE7C00"/>
</linearGradient>
<linearGradient id="paint1_linear_1_1454" x1="62.6206" y1="36.2609" x2="64.7971" y2="-0.00078209" gradientUnits="userSpaceOnUse">
<stop stop-color="#580900"/>
<stop offset="0.0456923" stop-color="#762D00"/>
<stop offset="0.105" stop-color="#985500"/>
<stop offset="0.1682" stop-color="#B57700"/>
<stop offset="0.2351" stop-color="#CC9300"/>
<stop offset="0.3069" stop-color="#DEA900"/>
<stop offset="0.3859" stop-color="#EBB800"/>
<stop offset="0.4778" stop-color="#F3C100"/>
<stop offset="0.6129" stop-color="#F5C400"/>
<stop offset="0.6986" stop-color="#F2C100"/>
<stop offset="0.7681" stop-color="#E8B700"/>
<stop offset="0.832" stop-color="#D8A600"/>
<stop offset="0.8926" stop-color="#C18E00"/>
<stop offset="0.9502" stop-color="#A46F00"/>
<stop offset="1" stop-color="#854E00"/>
</linearGradient>
<radialGradient id="paint2_radial_1_1454" cx="0" cy="0" r="1" gradientUnits="userSpaceOnUse" gradientTransform="translate(112.503 63.4022) scale(109.417 113.584)">
<stop offset="0.0876682" stop-color="#999999"/>
<stop offset="0.2452" stop-color="#6B6B6B"/>
<stop offset="0.4029" stop-color="#454545"/>
<stop offset="0.5593" stop-color="#272727"/>
<stop offset="0.7127" stop-color="#111111"/>
<stop offset="0.8613" stop-color="#040404"/>
<stop offset="1"/>
</radialGradient>
<linearGradient id="paint3_linear_1_1454" x1="113.996" y1="50.3224" x2="113.996" y2="5.03532" gradientUnits="userSpaceOnUse">
<stop/>
<stop offset="0.1877" stop-color="#030303"/>
<stop offset="0.3209" stop-color="#0C0C0C"/>
<stop offset="0.4374" stop-color="#1C1C1C"/>
<stop offset="0.5441" stop-color="#323232"/>
<stop offset="0.6444" stop-color="#4E4E4E"/>
<stop offset="0.7397" stop-color="#727272"/>
<stop offset="0.8313" stop-color="#9B9B9B"/>
<stop offset="0.9174" stop-color="#CACACA"/>
<stop offset="1" stop-color="white"/>
</linearGradient>
</defs>
</svg>
