<svg width="168" height="56" viewBox="0 0 168 56" fill="none" xmlns="http://www.w3.org/2000/svg">
<path d="M20.3636 56C9.1123 56 0 43.4118 0 28C0 12.5882 9.1123 0 20.3636 0H147.636C158.845 0 168 12.5294 168 28C168 43.4118 158.888 56 147.636 56H20.3636Z" fill="url(#paint0_linear_1_1447)"/>
<path d="M20.3634 53.4119C10.1388 53.4119 1.83936 42.0001 1.83936 27.9413C1.83936 13.8825 10.1388 2.4707 20.3634 2.4707H147.636C157.861 2.4707 166.16 13.8825 166.16 27.9413C166.16 42.0001 157.861 53.4119 147.636 53.4119H20.3634Z" fill="url(#paint1_linear_1_1447)"/>
<path d="M147.893 50.8826H20.107C11.0375 50.8826 3.6792 40.765 3.6792 28.2944V27.6473C3.6792 15.1767 11.0375 5.05908 20.107 5.05908H147.893C156.963 5.05908 164.321 15.1767 164.321 27.6473V28.2944C164.278 40.765 156.963 50.8826 147.893 50.8826Z" fill="#0186B3"/>
<g style="mix-blend-mode:screen">
<path d="M147.893 50.8826H20.107C11.0375 50.8826 3.6792 40.765 3.6792 28.2944V27.6473C3.6792 15.1767 11.0375 5.05908 20.107 5.05908H147.893C156.963 5.05908 164.321 15.1767 164.321 27.6473V28.2944C164.278 40.765 156.963 50.8826 147.893 50.8826Z" fill="url(#paint2_radial_1_1447)"/>
</g>
<g style="mix-blend-mode:screen">
<path d="M147.893 50.8826H20.107C11.0375 50.8826 3.6792 40.765 3.6792 28.2944V27.6473C3.6792 15.1767 11.0375 5.05908 20.107 5.05908H147.893C156.963 5.05908 164.321 15.1767 164.321 27.6473V28.2944C164.278 40.765 156.963 50.8826 147.893 50.8826Z" fill="url(#paint3_linear_1_1447)"/>
</g>
<path d="M53.2886 20.6162V28.2188H57.8882C60.4223 28.2188 61.8725 26.8271 61.8725 24.4102C61.8725 22.0518 60.3344 20.6162 57.8003 20.6162H53.2886ZM53.2886 30.8701V39H50.0073V17.8623H58.1958C62.5464 17.8623 65.2563 20.3818 65.2563 24.3223C65.2563 27.1787 63.7329 29.4932 61.1548 30.3574L65.8862 39H62.1069L57.8003 30.8701H53.2886ZM81.2671 23.5898V39H78.2348V36.3926H78.1616C77.312 38.2383 75.7446 39.2783 73.3862 39.2783C70.0317 39.2783 67.9809 37.0957 67.9809 33.5654V23.5898H71.145V32.9502C71.145 35.2939 72.2583 36.5537 74.4409 36.5537C76.7261 36.5537 78.103 34.9717 78.103 32.5693V23.5898H81.2671ZM84.519 39V17.8623H87.6831V39H84.519ZM97.3803 25.8604C95.1684 25.8604 93.6157 27.5449 93.4546 29.874H101.16C101.086 27.5156 99.5923 25.8604 97.3803 25.8604ZM101.145 34.4736H104.148C103.708 37.2861 101.042 39.293 97.5122 39.293C92.9858 39.293 90.2466 36.2314 90.2466 31.3682C90.2466 26.5342 93.0298 23.3115 97.3803 23.3115C101.658 23.3115 104.324 26.3291 104.324 31.002V32.0859H93.4399V32.2764C93.4399 34.957 95.0512 36.7295 97.5854 36.7295C99.3872 36.7295 100.72 35.8213 101.145 34.4736ZM106.506 27.9551C106.506 25.2012 108.938 23.3115 112.541 23.3115C115.969 23.3115 118.372 25.2305 118.474 27.9697H115.5C115.354 26.5781 114.226 25.7139 112.454 25.7139C110.74 25.7139 109.597 26.5488 109.597 27.7646C109.597 28.7168 110.359 29.3613 111.956 29.7568L114.548 30.3574C117.654 31.1045 118.826 32.2764 118.826 34.5469C118.826 37.3594 116.204 39.293 112.424 39.293C108.777 39.293 106.36 37.4033 106.111 34.5762H109.246C109.495 36.0557 110.637 36.876 112.571 36.876C114.475 36.876 115.647 36.085 115.647 34.8398C115.647 33.8584 115.061 33.3164 113.45 32.9062L110.696 32.2324C107.913 31.5586 106.506 30.1084 106.506 27.9551Z" fill="white"/>
<defs>
<linearGradient id="paint0_linear_1_1447" x1="84" y1="0" x2="84" y2="56" gradientUnits="userSpaceOnUse">
<stop stop-color="#FF730E"/>
<stop offset="0.295" stop-color="#C03900"/>
<stop offset="0.525" stop-color="#DBFF00"/>
<stop offset="0.97" stop-color="#CE7C00"/>
</linearGradient>
<linearGradient id="paint1_linear_1_1447" x1="44.7648" y1="36.6771" x2="47.673" y2="0.0981856" gradientUnits="userSpaceOnUse">
<stop stop-color="#580900"/>
<stop offset="0.0456923" stop-color="#762D00"/>
<stop offset="0.105" stop-color="#985500"/>
<stop offset="0.1682" stop-color="#B57700"/>
<stop offset="0.2351" stop-color="#CC9300"/>
<stop offset="0.3069" stop-color="#DEA900"/>
<stop offset="0.3859" stop-color="#EBB800"/>
<stop offset="0.4778" stop-color="#F3C100"/>
<stop offset="0.6129" stop-color="#F5C400"/>
<stop offset="0.6986" stop-color="#F2C100"/>
<stop offset="0.7681" stop-color="#E8B700"/>
<stop offset="0.832" stop-color="#D8A600"/>
<stop offset="0.8926" stop-color="#C18E00"/>
<stop offset="0.9502" stop-color="#A46F00"/>
<stop offset="1" stop-color="#854E00"/>
</linearGradient>
<radialGradient id="paint2_radial_1_1447" cx="0" cy="0" r="1" gradientUnits="userSpaceOnUse" gradientTransform="translate(82.8568 64.1272) scale(83.5547 114.888)">
<stop offset="0.0876682" stop-color="#999999"/>
<stop offset="0.2452" stop-color="#6B6B6B"/>
<stop offset="0.4029" stop-color="#454545"/>
<stop offset="0.5593" stop-color="#272727"/>
<stop offset="0.7127" stop-color="#111111"/>
<stop offset="0.8613" stop-color="#040404"/>
<stop offset="1"/>
</radialGradient>
<linearGradient id="paint3_linear_1_1447" x1="83.9968" y1="50.8972" x2="83.9968" y2="5.0902" gradientUnits="userSpaceOnUse">
<stop/>
<stop offset="0.1877" stop-color="#030303"/>
<stop offset="0.3209" stop-color="#0C0C0C"/>
<stop offset="0.4374" stop-color="#1C1C1C"/>
<stop offset="0.5441" stop-color="#323232"/>
<stop offset="0.6444" stop-color="#4E4E4E"/>
<stop offset="0.7397" stop-color="#727272"/>
<stop offset="0.8313" stop-color="#9B9B9B"/>
<stop offset="0.9174" stop-color="#CACACA"/>
<stop offset="1" stop-color="white"/>
</linearGradient>
</defs>
</svg>
